<svg xmlns="http://www.w3.org/2000/svg" xmlns:xlink="http://www.w3.org/1999/xlink" width="500" zoomAndPan="magnify" viewBox="0 0 375 374.999991" height="500" preserveAspectRatio="xMidYMid meet" version="1.0"><defs><clipPath id="8a08d4da6c"><path d="M 17.550781 49.203125 L 356 49.203125 L 356 325.953125 L 17.550781 325.953125 Z M 17.550781 49.203125 " clip-rule="nonzero"/></clipPath><clipPath id="f46aca7a60"><path d="M 108.640625 72.027344 L 266.140625 72.027344 L 266.140625 242 L 108.640625 242 Z M 108.640625 72.027344 " clip-rule="nonzero"/></clipPath></defs><g clip-path="url(#8a08d4da6c)"><path fill="#000000" d="M 273.785156 49.398438 C 273.738281 49.402344 273.707031 49.402344 273.6875 49.417969 C 274.128906 52.082031 277.871094 53.585938 279.121094 56 C 280.882812 57.824219 283.816406 61.480469 285.640625 64.148438 C 287.46875 66.816406 289.390625 69.445312 289.910156 69.988281 C 290.433594 70.53125 291.960938 72.339844 293.304688 73.996094 C 296.1875 77.558594 303.203125 84.441406 307.886719 88.308594 C 309.71875 89.820312 311.925781 91.671875 312.804688 92.429688 C 315.132812 94.429688 316.132812 94.296875 315.035156 92.125 C 314.742188 91.539062 314.03125 89.40625 313.453125 87.390625 C 312.875 85.375 312.1875 83.308594 311.929688 82.792969 C 310.71875 79.199219 309.410156 75.902344 307.296875 72.699219 C 306.179688 70.589844 304.921875 68.515625 303.371094 66.839844 C 301.519531 63.976562 298.59375 61.714844 296.050781 59.761719 C 289.945312 55.371094 283.273438 52.761719 276.300781 50.199219 C 275.164062 49.710938 274.117188 49.382812 273.785156 49.398438 Z M 96.292969 51.5 C 91.824219 51.664062 87.566406 55.167969 83.460938 56.652344 C 77.648438 59.402344 74.429688 61.628906 70.386719 65.675781 C 66.890625 69.171875 61.402344 77.613281 60.832031 80.371094 C 60.367188 82.632812 58.714844 88.308594 57.804688 90.75 C 57.363281 91.925781 56.832031 93.507812 56.621094 94.261719 C 56.066406 96.257812 56.964844 95.957031 60.015625 93.15625 C 61.496094 91.792969 63.683594 89.949219 64.855469 89.050781 C 66.03125 88.152344 67.558594 86.867188 68.25 86.191406 C 68.941406 85.511719 70.867188 83.675781 72.539062 82.125 C 74.210938 80.574219 76.800781 77.597656 78.296875 75.503906 C 79.792969 73.410156 82.601562 69.53125 84.527344 66.878906 C 87.058594 63.378906 89.390625 59.78125 92.613281 56.839844 C 95.128906 54.164062 97.1875 51.769531 97.1875 51.515625 C 96.886719 51.496094 96.589844 51.488281 96.292969 51.5 Z M 305.582031 65.027344 L 308.25 67.964844 C 309.722656 69.582031 311.109375 71.042969 311.320312 71.210938 C 314.007812 75.113281 315.621094 79.390625 316.449219 84.03125 C 316.929688 85.542969 317.777344 88.566406 318.335938 90.75 C 318.890625 92.933594 319.847656 96.503906 320.46875 98.6875 C 322.328125 105.207031 322.371094 105.40625 321.957031 105.40625 C 321.738281 105.40625 320.691406 104.414062 319.632812 103.191406 C 315.667969 98.625 314.59375 97.679688 307.335938 92.621094 C 304.988281 90.980469 302.554688 89.195312 301.941406 88.632812 C 301.324219 88.066406 299.953125 87.089844 298.890625 86.457031 C 296.867188 85.253906 295.65625 83.902344 292.046875 78.84375 L 289.875 75.789062 L 290.292969 78.84375 C 290.785156 82.417969 291.773438 85.292969 294.390625 90.75 C 296.335938 94.804688 303.8125 103.015625 309.164062 106.96875 C 318.710938 114.027344 327.316406 122.390625 329.277344 126.527344 C 329.84375 127.726562 330.453125 128.578125 330.609375 128.417969 C 330.769531 128.257812 330.867188 120.210938 330.839844 110.519531 C 330.785156 91.902344 330.492188 89.652344 327.410156 83.421875 C 323.339844 75.203125 314.121094 66.921875 307.375 65.429688 Z M 64.089844 67.585938 C 61.984375 67.675781 56.027344 71.105469 52.519531 74.566406 C 45.855469 81.152344 43.390625 85.476562 42.015625 92.964844 C 40.484375 101.324219 40.375 104.273438 41.273438 112.734375 C 41.753906 117.265625 42 123.105469 41.828125 125.707031 C 41.625 128.710938 41.738281 130.441406 42.132812 130.441406 C 42.472656 130.441406 42.925781 129.960938 43.140625 129.371094 C 44.589844 125.417969 51.449219 117.796875 57.800781 113.078125 C 68.398438 105.207031 76.289062 95.816406 79.648438 87.085938 C 81.769531 81.574219 82.191406 79.007812 80.960938 79.261719 C 80.441406 79.371094 79.5625 80.277344 79 81.285156 C 77.585938 83.808594 73.539062 87.570312 66.683594 92.753906 C 60.351562 97.878906 53.351562 102.253906 49.242188 109.621094 C 47.460938 113.890625 47.894531 110.957031 49.871094 105.386719 C 50.996094 102.210938 52.386719 97.40625 52.957031 94.71875 C 54.554688 87.246094 55.6875 82.777344 56.769531 79.757812 C 58.125 75.984375 61.417969 70.875 63.292969 69.644531 C 64.144531 69.085938 64.855469 68.378906 64.855469 68.082031 C 64.855469 67.707031 64.578125 67.5625 64.089844 67.585938 Z M 332.195312 87.085938 C 331.441406 87.21875 331.71875 88.363281 333.015625 90.445312 C 333.433594 91.117188 334.25 93.320312 334.824219 95.328125 C 335.734375 98.503906 335.804688 100.347656 335.359375 109.375 C 335.078125 115.089844 334.820312 125.628906 334.804688 132.808594 C 334.789062 140.941406 334.605469 145.082031 334.292969 143.796875 C 332.949219 138.277344 332.222656 136.546875 329.660156 132.652344 C 328.136719 130.339844 324.699219 126.496094 322.035156 124.105469 C 314.988281 117.789062 308.074219 110.863281 306.804688 108.859375 C 306.191406 107.890625 305.472656 107.347656 305.183594 107.636719 C 304.648438 108.175781 306.195312 114.648438 307.640625 117.921875 C 309.269531 122.484375 310.902344 126.746094 313.742188 130.6875 C 318.265625 137.839844 323.96875 144.210938 328.382812 151.410156 C 330.925781 155.1875 333.476562 160.59375 334.84375 165.09375 C 335.480469 167.191406 336.148438 168.90625 336.332031 168.910156 C 340.023438 161.070312 340.757812 151.15625 343.878906 143.570312 C 348.363281 133.328125 347.449219 112.339844 342.070312 101.742188 C 339.621094 96.410156 336.558594 91.300781 332.367188 87.085938 C 332.308594 87.085938 332.246094 87.078125 332.195312 87.085938 Z M 39.464844 89.777344 C 38.65625 89.957031 36.089844 92.914062 33.957031 96.644531 C 31.8125 100.53125 29.679688 104.507812 27.949219 108.554688 C 27.839844 109.335938 27.4375 110.945312 27.054688 112.121094 C 25.191406 123.363281 25.003906 135.363281 29.417969 146.011719 C 30.09375 148.027344 31.496094 152.011719 32.542969 154.867188 C 33.589844 157.71875 34.574219 160.742188 34.71875 161.582031 C 34.960938 163 35.628906 165.761719 35.898438 166.46875 C 35.964844 166.636719 36.226562 167.707031 36.492188 168.832031 L 36.96875 170.875 L 37.691406 169.140625 C 38.085938 168.179688 38.757812 166.078125 39.199219 164.484375 C 40.6875 159.585938 45.230469 152.445312 48.136719 148.472656 C 50.792969 144.542969 53.324219 140.660156 53.761719 139.847656 C 56.460938 136.160156 59.265625 132.554688 61.195312 128.378906 C 61.195312 128.085938 61.988281 126.160156 62.949219 124.105469 C 65.929688 117.742188 67.65625 110.289062 66.152344 110.289062 C 65.859375 110.289062 64.476562 111.800781 63.082031 113.648438 C 61.691406 115.496094 60.34375 117.007812 60.089844 117.007812 C 50.207031 124.464844 40.785156 134.664062 38.320312 147.136719 C 37.527344 151.914062 37.402344 148.714844 38.09375 141.433594 C 38.804688 133.898438 38.488281 127.816406 36.71875 115.308594 C 35.417969 106.101562 36.238281 97.542969 38.96875 92.066406 C 39.824219 90.351562 39.886719 89.683594 39.464844 89.777344 Z M 350.992188 131.777344 C 350.695312 131.777344 350.535156 133.398438 350.324219 137.769531 C 349.582031 146.261719 347.351562 154.222656 343.957031 162.003906 C 340.414062 169.417969 337.398438 177.152344 335.855469 185.246094 C 335.300781 189.085938 334.777344 187.664062 334.617188 181.828125 C 334.460938 176.222656 333.867188 173.691406 331.679688 169.328125 C 330.335938 166.445312 329.464844 163.390625 327.507812 160.78125 C 323.914062 155.835938 321.132812 150.175781 318.335938 144.789062 C 317.511719 143.109375 316.824219 141.394531 316.8125 140.972656 C 316.78125 139.644531 315.726562 140.152344 315.34375 141.679688 C 314.671875 144.371094 315.878906 153.507812 318.394531 164.636719 C 319.910156 171.339844 323.316406 183.40625 325.296875 189.0625 C 327.117188 194.257812 327.796875 199.75 327.394531 206.007812 C 326.960938 212.707031 327.421875 213.726562 329.433594 210.585938 C 330.023438 209.664062 334.265625 203.9375 338.851562 197.859375 C 343.433594 191.777344 347.773438 185.597656 348.496094 184.117188 C 356.070312 168.660156 357.316406 145.785156 351.335938 132.273438 C 351.195312 131.957031 351.09375 131.777344 350.992188 131.777344 Z M 21.625 134.429688 C 20.3125 135.742188 17.890625 149.167969 17.886719 155.132812 C 17.886719 160.914062 18.929688 169.386719 20.097656 173.144531 C 23.460938 184.734375 28.851562 195.09375 37.523438 203.847656 C 40.101562 207.039062 42.804688 210.777344 43.527344 212.167969 C 45.820312 216.566406 46.253906 215.550781 46.253906 205.699219 C 46.308594 199.253906 46.878906 193.246094 49.304688 187.226562 L 51.132812 180.816406 C 51.613281 179.136719 52.453125 176.117188 52.984375 174.101562 C 53.515625 172.085938 54.347656 169.035156 54.832031 167.324219 C 55.792969 163.515625 55.675781 159.597656 56.605469 155.78125 C 57.558594 151.835938 57.867188 140.820312 57.023438 140.820312 C 52.449219 145.890625 42.492188 169.90625 41.507812 171.65625 C 39.078125 178.292969 38.65625 180.734375 38.914062 187.132812 C 39.195312 194.160156 38.464844 194.820312 37.464844 188.449219 C 36.199219 180.386719 34.394531 174.394531 31.652344 169.234375 C 30.792969 167.613281 30.089844 166.046875 30.089844 165.761719 C 30.089844 165.476562 29.265625 163.503906 28.257812 161.371094 C 27.253906 159.238281 26.429688 157.292969 26.429688 157.039062 C 26.429688 156.789062 26.042969 155.714844 25.570312 154.65625 C 23.609375 150.25 22.710938 146.28125 22.347656 140.363281 C 22.136719 136.914062 21.8125 134.238281 21.625 134.429688 Z M 318.011719 176.847656 C 315.460938 181.328125 314.753906 187.121094 313.171875 191.980469 C 312.289062 196.449219 310.082031 216.703125 310.082031 220.355469 C 310.082031 226.574219 306.503906 243.6875 304.441406 247.375 C 302.648438 250.570312 302.242188 251.597656 302.535156 252.070312 C 309.089844 248.289062 315.5 243.992188 321.671875 239.742188 C 323.59375 238.675781 325.234375 237.152344 327.164062 236.078125 C 328.433594 235.070312 329.617188 234.246094 329.792969 234.246094 C 339.992188 226.164062 348.742188 216.203125 352.976562 203.714844 C 355.429688 196.316406 356.726562 184.191406 355.433594 180.816406 C 354.90625 179.441406 354.015625 180.816406 354.003906 183.03125 C 353.992188 184.960938 350.957031 192.726562 349.734375 193.945312 C 349.566406 194.113281 348.605469 195.464844 347.597656 196.960938 C 346.59375 198.453125 342.714844 202.851562 338.980469 206.730469 C 335.25 210.609375 331.160156 215.027344 329.910156 216.539062 C 327.636719 219.011719 325.652344 221.480469 323.921875 224.382812 C 322.476562 226.285156 320.140625 229.828125 319.882812 230.164062 C 317.90625 232.707031 316.855469 234.300781 316.734375 234.378906 C 316.777344 234.207031 317.480469 232.894531 318.871094 230.085938 C 320.414062 226.96875 321.515625 223.199219 322.300781 217.703125 C 323.085938 212.222656 322.730469 207.660156 320.757812 197.914062 C 319.203125 190.226562 318.625 185.625 318.625 181.199219 C 318.625 178.703125 318.363281 176.847656 318.011719 176.847656 Z M 55.6875 181.273438 C 55.320312 181.242188 55.101562 181.921875 55.097656 183.355469 C 55.089844 185.902344 53.175781 196.863281 51.972656 201.273438 C 51.527344 202.90625 51.210938 207.980469 51.210938 213.789062 C 51.25 220.195312 51.332031 226.835938 54.886719 232.433594 C 55.777344 233.777344 56.34375 235.039062 56.164062 235.21875 C 53.210938 232.601562 52 228.691406 49.339844 225.792969 C 48.351562 224.335938 45.882812 221.3125 43.851562 219.078125 C 39.539062 214.324219 29.800781 204.015625 27.800781 202.074219 C 27.039062 201.335938 26.425781 200.539062 26.425781 200.320312 C 26.425781 200.097656 25.648438 198.929688 24.691406 197.703125 C 22.414062 194.78125 19.625 188.738281 19.394531 186.234375 C 19.292969 185.140625 18.90625 183.75 18.554688 183.144531 C 17.546875 181.414062 17.722656 193.957031 18.785156 199.746094 C 19.902344 205.851562 20.796875 208.359375 24.101562 214.589844 C 27.207031 220.449219 32.449219 226.921875 37.101562 230.640625 C 38.941406 232.109375 40.457031 233.53125 40.457031 233.789062 C 46.808594 238.21875 53.222656 242.929688 59.578125 247.089844 C 59.96875 247.101562 62.617188 248.730469 65.46875 250.695312 C 72.40625 255.476562 72.441406 255.464844 70.121094 250.484375 C 69.320312 248.773438 68.242188 246.414062 67.738281 245.238281 C 65.929688 241.039062 63.984375 230.285156 63.3125 220.8125 C 62.347656 207.152344 59.886719 191.550781 57.632812 184.824219 C 56.867188 182.535156 56.160156 181.3125 55.6875 181.273438 Z M 306.425781 212.09375 C 306.355469 212.078125 306.292969 212.089844 306.214844 212.113281 C 305.75 212.230469 305.050781 213.011719 304.078125 214.515625 C 303.035156 216.128906 301.496094 218.253906 300.648438 219.230469 C 296.671875 224.824219 293.019531 230.867188 290.566406 237.28125 C 290.566406 237.636719 290.289062 238.414062 289.953125 238.996094 C 289.621094 239.582031 288.257812 243.34375 286.921875 247.375 C 284.011719 256.175781 282.816406 259.566406 282.101562 260.980469 C 281.804688 261.5625 280.976562 263.265625 280.25 264.777344 C 277.996094 269.492188 275.195312 273.503906 271.824219 276.875 C 270.71875 277.984375 269.824219 279.011719 269.824219 279.164062 C 269.824219 279.664062 272.316406 279.453125 273.425781 278.859375 C 274.757812 278.148438 282.332031 276.410156 286.90625 275.769531 C 295.488281 274.566406 298.644531 273.761719 306.445312 270.789062 C 311.761719 268.761719 322.222656 261.539062 328.082031 255.847656 C 333.152344 250.917969 337.726562 244.550781 340.546875 238.5 C 342.320312 234.699219 345.03125 225.683594 344.550781 225.199219 C 344.425781 225.074219 343.761719 226.027344 343.0625 227.320312 C 341.054688 231.039062 340.484375 231.804688 336.925781 235.640625 C 333.757812 239.054688 327.953125 243.917969 325.945312 244.835938 C 325.441406 245.066406 324.207031 245.777344 323.199219 246.421875 C 322.195312 247.0625 319.3125 248.589844 316.796875 249.816406 C 314.277344 251.042969 311.808594 252.285156 311.304688 252.582031 C 310.800781 252.882812 308.921875 253.84375 307.128906 254.71875 C 300.75 258.269531 294.5 262.117188 289 266.914062 C 287.792969 268.089844 286.644531 269.050781 286.449219 269.050781 C 286.117188 269.050781 288.132812 266.589844 289.6875 265.101562 C 295 258.796875 298.84375 251.53125 300.535156 243.40625 C 301.0625 240.886719 301.933594 235.941406 302.480469 232.414062 C 303.828125 223.695312 305.109375 217.90625 306.273438 215.144531 C 306.9375 213.566406 307.042969 212.632812 306.617188 212.207031 C 306.5625 212.152344 306.492188 212.105469 306.425781 212.089844 Z M 66.902344 214.097656 C 65.390625 214.167969 69.347656 222.65625 69.152344 224.78125 C 71.210938 234.136719 71.570312 236.140625 71.570312 237.96875 C 71.570312 242.183594 75.835938 256.222656 77.671875 258.0625 C 79.636719 261.804688 81.652344 265.0625 85.144531 267.46875 L 89.566406 271.707031 L 85.8125 269.1875 C 83.75 267.800781 81.65625 266.230469 81.140625 265.714844 C 75.304688 262.203125 70.03125 257.570312 63.601562 254.953125 C 44.226562 246.007812 36.746094 240.398438 30.527344 230.105469 C 29.007812 227.585938 28.84375 227.449219 29.15625 229.058594 C 29.351562 230.0625 29.664062 231.703125 29.84375 232.703125 C 33.335938 242.972656 39.109375 251.949219 47.207031 259.28125 C 48.957031 260.792969 50.960938 262.550781 51.667969 263.175781 C 59.828125 269.675781 69.464844 274.15625 79.804688 275.808594 L 90.480469 277.640625 C 91.703125 277.859375 105.375 281.644531 103.863281 279.433594 C 102.105469 279.433594 96.035156 271.324219 92.882812 264.777344 C 92.15625 263.265625 91.308594 261.5625 91.015625 260.980469 C 90.335938 259.640625 89.234375 256.585938 86.171875 247.488281 C 82.882812 237.722656 78.445312 228.644531 74.46875 223.558594 C 74.207031 223.222656 72.636719 221.199219 70.960938 219.058594 C 69.285156 216.914062 67.910156 214.921875 67.910156 214.628906 C 67.445312 214.253906 67.117188 214.085938 66.898438 214.09375 Z M 283.589844 247.316406 C 282.605469 247.351562 277.769531 250.855469 274.480469 253.976562 C 272.644531 255.71875 270.089844 258.015625 268.796875 259.074219 C 267.507812 260.128906 262.378906 265.007812 257.398438 269.910156 C 249.074219 278.035156 240.144531 285.101562 228.117188 286.761719 C 227.273438 286.761719 226.433594 287.011719 226.25 287.3125 C 225.816406 288.019531 227.347656 288.59375 229.644531 288.59375 C 231.378906 288.59375 236.925781 289.746094 242.070312 291.167969 C 243.414062 291.539062 245.609375 292.050781 246.953125 292.3125 C 248.292969 292.574219 252 293.339844 255.1875 294.011719 C 266.453125 296.363281 278.289062 297.324219 289.347656 293.382812 C 298.925781 290.089844 307.53125 284.070312 314.015625 276.304688 C 316.1875 274.011719 320.339844 266.941406 319.296875 267.316406 C 318.972656 267.433594 317.242188 268.898438 315.445312 270.578125 C 312.023438 273.777344 310.667969 274.773438 308.410156 275.75 C 307.660156 276.074219 305.875 276.910156 304.445312 277.601562 C 300.421875 279.546875 292.507812 281.054688 280.503906 282.160156 C 270.792969 283.089844 261.039062 284.808594 251.375 285.445312 C 256.710938 283.871094 261.652344 281.292969 266.089844 277.925781 C 268.1875 276.097656 273.550781 268.160156 275.394531 264.167969 C 275.9375 262.992188 277.148438 260.382812 278.101562 258.367188 C 279.054688 256.351562 279.859375 254.554688 279.875 254.378906 C 279.886719 254.203125 280.816406 252.617188 281.953125 250.847656 C 283.085938 249.078125 283.878906 247.511719 283.726562 247.355469 C 283.695312 247.324219 283.65625 247.316406 283.589844 247.316406 Z M 89.894531 248.5 C 89.34375 248.542969 89.730469 249.558594 90.980469 251.515625 C 93.535156 255.515625 93.855469 256.113281 97.367188 262.945312 C 101.691406 271.363281 104.425781 275.519531 107.660156 278.613281 C 110.683594 281.503906 116.160156 284.574219 119.363281 285.175781 C 120.5625 285.402344 121.976562 286.265625 121.976562 286.265625 C 121.976562 286.265625 118.917969 286.21875 117.324219 285.84375 C 114.671875 285.324219 96.609375 283.527344 87.128906 282.847656 C 75.0625 281.984375 64.9375 278.351562 58.382812 272.503906 C 54.742188 269.257812 53.429688 269.144531 55.714844 272.277344 C 56.507812 273.363281 57.726562 275.054688 58.421875 276.054688 C 64.066406 282.980469 71.617188 289.355469 79.847656 292.789062 C 80.65625 293.523438 83.9375 294.660156 88.960938 295.9375 C 94.414062 297.324219 104.058594 297.441406 112.710938 296.222656 C 116.332031 295.714844 119.546875 295.148438 119.839844 294.964844 C 120.136719 294.78125 121.679688 294.386719 123.273438 294.105469 C 124.867188 293.824219 128.230469 293.003906 130.746094 292.273438 C 133.261719 291.542969 138.183594 290.335938 141.6875 289.582031 L 148.054688 288.210938 L 145.042969 287.445312 C 143.382812 287.023438 141.132812 286.285156 140.027344 285.804688 C 134.785156 283.671875 129.203125 282.21875 124.644531 278.554688 C 123.472656 277.675781 120.027344 274.554688 117 271.628906 C 108.925781 263.816406 100.96875 256.542969 96.792969 253.175781 C 92.851562 249.988281 90.601562 248.445312 89.894531 248.5 Z M 205.414062 287.21875 C 202.132812 287.269531 198.570312 287.585938 194.792969 288.25 C 193.964844 288.394531 192.285156 288.726562 191.078125 289.125 C 187.34375 290.363281 186.324219 290.398438 183.96875 289.355469 C 182.101562 288.527344 179.464844 287.792969 169.480469 287.769531 C 163.660156 287.871094 158 288.105469 152.511719 290.0625 C 149.164062 290.726562 146.050781 292.316406 142.792969 293.285156 C 140.695312 294.140625 137.304688 295.488281 135.261719 296.261719 C 133.21875 297.035156 129.773438 298.496094 127.597656 299.527344 C 122.347656 302.011719 115.171875 303.8125 108.613281 304.277344 C 101.875 304.757812 94.421875 303.339844 88.234375 300.421875 C 83.464844 298.175781 83.164062 298.085938 83.164062 298.933594 C 88.730469 305.589844 96.140625 309.894531 104.074219 313.09375 C 106.65625 314.464844 117.855469 316.15625 121.289062 315.6875 C 125.253906 315.148438 132.394531 313.679688 133.90625 313.09375 C 139.117188 311.070312 141.398438 309.964844 145.992188 307.253906 C 150.105469 304.75 153.945312 301.917969 157.964844 299.316406 C 164.550781 294.28125 173.324219 291.339844 178.113281 292.542969 C 179.671875 292.933594 179.402344 293.160156 174.339844 295.746094 C 167.121094 299.4375 161.640625 303.066406 154.265625 309.027344 C 146.988281 314.914062 142.144531 319.515625 142.429688 320.285156 C 142.542969 320.597656 144.011719 321.960938 145.6875 323.320312 C 147.367188 324.683594 149.046875 325.808594 149.425781 325.820312 C 149.804688 325.832031 150.90625 324.808594 151.863281 323.550781 C 155.179688 319.199219 168.175781 306.996094 171.539062 305.078125 C 174.828125 303.109375 177.519531 300.261719 181.050781 298.648438 C 182.386719 297.988281 183.863281 297.101562 184.308594 296.683594 C 186.160156 294.953125 191.832031 296.824219 197.234375 300.9375 C 198.074219 301.578125 199.859375 302.917969 201.199219 303.933594 C 205.277344 307.023438 208.347656 309.535156 211.207031 312.101562 C 214.65625 315.21875 217.429688 318.640625 220.929688 321.625 C 223.261719 324.023438 224.929688 325.261719 225.65625 325.132812 C 227.148438 324.871094 231.996094 319.816406 231.644531 318.894531 C 231 317.214844 221.324219 309.199219 213.703125 304.03125 C 210.851562 302.09375 208.382812 300.351562 208.214844 300.15625 C 208.046875 299.960938 207.085938 299.367188 206.078125 298.839844 C 205.074219 298.3125 202.234375 296.792969 199.769531 295.460938 L 195.289062 293.039062 L 197.253906 292.65625 C 202.898438 291.527344 207.597656 292.992188 215.648438 298.402344 C 218.890625 300.664062 221.90625 303.15625 225.410156 304.984375 C 234.976562 311.324219 244.824219 314.351562 255.832031 314.351562 C 264.605469 314.351562 270.203125 312.789062 278.691406 307.980469 C 284.140625 304.890625 292.535156 297.679688 291.671875 296.816406 C 291.480469 296.625 289.710938 297.351562 287.746094 298.417969 C 281.402344 301.859375 276.75 302.835938 266.773438 302.828125 C 259.34375 302.757812 252.398438 301.613281 245.578125 298.457031 C 240.011719 295.71875 234.109375 293.59375 228.34375 291.339844 C 226.15625 290.304688 223.792969 289.957031 221.480469 289.28125 C 217.933594 288.167969 212.898438 287.253906 206.804688 287.21875 C 206.347656 287.214844 205.878906 287.210938 205.410156 287.21875 Z M 205.414062 287.21875 " fill-opacity="1" fill-rule="nonzero"/></g><g clip-path="url(#f46aca7a60)"><path fill="#000000" d="M 265.605469 178.222656 C 262.21875 173.253906 238.882812 121.328125 238.539062 118.253906 C 245.933594 117.136719 250.648438 111.050781 250.675781 104.734375 C 250.699219 99.710938 245.878906 98.128906 243.820312 100.359375 C 242.453125 101.84375 243.316406 104.289062 244.703125 104.390625 C 244.710938 106.71875 243.535156 107.382812 241.773438 109.105469 C 240.070312 110.773438 234.144531 108.667969 231.953125 107.742188 C 228.488281 106.273438 225.324219 104.269531 221.167969 101.742188 L 221.167969 101.75 C 216.269531 98.847656 214.085938 97.984375 211.6875 97.160156 L 211.6875 97.152344 C 202.707031 94.558594 198.792969 97.207031 196.121094 98.714844 L 196.175781 98.742188 L 196.09375 98.75 C 194.054688 100.03125 193.140625 100.820312 191.328125 101.253906 C 191.328125 101.253906 190.585938 100.945312 190.585938 100.945312 C 190.046875 100.71875 189.800781 97.089844 190.53125 95.492188 C 191.871094 92.554688 196.339844 92.101562 197.179688 86.898438 C 197.867188 82.773438 195.550781 79.816406 192.546875 77.023438 C 192.546875 77.023438 192.589844 77 192.589844 77 C 192.542969 77.023438 191.539062 76.015625 191.441406 75.921875 C 190.929688 75.421875 190.570312 74.789062 190.171875 74.203125 C 188.683594 72.027344 187.148438 72.566406 187.394531 72.542969 C 184.707031 72.785156 184.292969 75.277344 183.289062 76.171875 L 182.25 77.144531 L 182.289062 77.160156 C 180.9375 78.421875 178.683594 80.375 177.925781 83.699219 C 177.035156 87.472656 178.582031 90.203125 181.542969 92.570312 C 183.585938 94.203125 185.382812 95.09375 184.792969 99.664062 C 184.539062 101.625 183.992188 101.472656 182.84375 101.035156 C 177.144531 98.851562 173.527344 90.152344 152.613281 102.453125 L 152.632812 102.46875 C 151.855469 102.9375 151.816406 102.9375 150.90625 103.535156 L 150.886719 103.617188 C 147.34375 105.542969 143.800781 107.902344 139.070312 109.109375 C 137.691406 109.460938 136.195312 110.03125 134.765625 109.714844 C 132.238281 109.152344 130.09375 106.210938 130.289062 104.40625 C 130.285156 104.433594 131.09375 104.007812 131.171875 103.9375 C 132.851562 102.316406 131.390625 98.707031 127.953125 99.472656 C 120.546875 101.125 124.8125 117.160156 136.460938 118.148438 C 136.269531 119.78125 120.886719 156.570312 109.550781 177.703125 C 109.195312 178.636719 108.699219 178.972656 109 179.878906 C 109.410156 181.109375 111.304688 182.21875 112.511719 182.664062 C 112.691406 182.671875 112.6875 182.667969 112.6875 182.667969 C 114.554688 189.929688 120.050781 196.53125 124.910156 199.769531 C 131.648438 204.257812 141.644531 204.257812 145.984375 203.496094 C 154.089844 202.117188 165.320312 195.082031 168.464844 185.667969 C 168.890625 184.398438 168.902344 184.386719 169.425781 182.980469 C 171.515625 182.992188 172.476562 180.605469 172.769531 180.191406 C 172.878906 178.785156 172.359375 177.851562 170.941406 177.414062 C 166.859375 168.285156 165.976562 170.402344 157.109375 148.019531 C 147 122.40625 149.933594 125.160156 145.59375 116.925781 C 145.945312 116.726562 146.296875 116.527344 146.644531 116.328125 C 146.601562 116.363281 146.589844 116.460938 146.589844 116.507812 C 148.222656 115.621094 151.015625 112.480469 155.433594 110.003906 L 155.425781 109.925781 C 157.761719 109.015625 158.074219 108.914062 158.695312 108.585938 C 161.746094 108.144531 170.5625 106.015625 178.074219 118.128906 L 178.0625 118.234375 C 178.699219 119.507812 180.664062 124.476562 180.972656 125.65625 C 177.75 126.019531 177.625 129.082031 177.4375 132.171875 L 177.523438 132.128906 C 177.53125 133.035156 177.664062 133.863281 177.859375 134.726562 L 177.757812 134.746094 C 177.992188 135.207031 177.925781 135.015625 178.054688 135.582031 L 178.164062 135.546875 C 178.734375 136.683594 179.550781 137.804688 180.410156 138.804688 L 180.667969 139.691406 C 181.207031 141.523438 178.960938 142.691406 178.667969 146.011719 C 178.371094 149.449219 179.96875 150.839844 179.832031 152.65625 C 179.652344 155.089844 178.632812 155.789062 179.621094 158.628906 L 179.597656 158.667969 C 179.875 159.21875 180.070312 159.8125 180.296875 160.386719 C 180.566406 161.074219 181.027344 161.449219 181.03125 162.277344 C 181.035156 162.921875 180.761719 163.539062 180.578125 164.148438 C 177.878906 173.125 184.53125 176.183594 172.371094 198.726562 L 172.355469 198.703125 C 169.960938 203.25 168.566406 204.960938 170.496094 211.207031 C 172.238281 216.847656 170.257812 216.804688 164.6875 221.640625 L 164.742188 221.679688 C 164.390625 222.027344 155.480469 231.960938 155.203125 232.265625 C 154.851562 232.65625 156.761719 234.242188 157.035156 234.417969 C 158.71875 235.496094 159.71875 235.4375 164.871094 237.289062 C 182.953125 243.78125 202.457031 241.898438 217.382812 234.867188 C 218.785156 234.175781 219.789062 233.304688 219.703125 231.773438 C 219.703125 231.765625 218.496094 230.789062 218.371094 230.660156 C 218.324219 230.609375 214.289062 226.0625 214.289062 226 C 210.136719 221.195312 210.660156 222.007812 208.808594 220.320312 L 208.78125 220.34375 C 202.328125 215.21875 203.363281 215.867188 205.316406 208.09375 L 205.222656 208.140625 C 205.746094 204.699219 204.828125 203.105469 203.53125 200.257812 L 203.480469 200.3125 C 202.695312 198.832031 202.417969 198.488281 201.574219 196.664062 L 201.554688 196.664062 C 197.410156 187.898438 196.367188 184.859375 195.226562 179.878906 C 195.226562 179.878906 195.09375 178.679688 195.039062 178.054688 L 195.019531 178.054688 C 194.898438 175.957031 194.933594 174.972656 195.046875 173.15625 L 195.015625 173.144531 C 195.152344 169.777344 195.21875 167.984375 194.695312 165.25 L 194.703125 165.246094 C 194.667969 165.117188 194.691406 165.238281 194.558594 164.527344 L 194.511719 164.546875 C 194.214844 163.453125 193.886719 162.519531 194.085938 161.609375 C 194.226562 160.96875 194.597656 159.746094 195.160156 159.347656 C 195.898438 157.628906 195.949219 155.988281 195.46875 154.203125 C 194.410156 150.269531 198.324219 148.195312 195 142.28125 C 194.027344 140.558594 194.183594 140.550781 194.4375 138.808594 C 194.667969 138.628906 194.816406 138.519531 194.984375 138.246094 L 194.988281 138.28125 L 196.445312 136.234375 C 197.6875 134.484375 198.746094 126.46875 194.097656 125.648438 L 193.984375 125.765625 L 193.953125 125.742188 C 194.390625 124.375 196.242188 119.695312 196.425781 119.253906 L 196.40625 119.214844 C 200.210938 111.894531 205.839844 108.542969 210.941406 108.195312 C 212.222656 108.105469 212.320312 108.066406 214.964844 108.375 L 214.957031 108.300781 L 215.007812 108.398438 C 217.871094 109.09375 218.773438 109.578125 221.347656 111.003906 L 221.339844 111.070312 C 222.816406 112.039062 222.503906 111.816406 227.726562 116.054688 L 227.621094 115.839844 C 228.203125 116.238281 228.8125 116.59375 229.445312 116.902344 C 225.023438 124.402344 227.246094 125.890625 216.265625 151.960938 C 207.515625 172.84375 208.378906 167.808594 204.027344 177.417969 C 202.613281 177.863281 202.101562 178.78125 202.207031 180.113281 C 202.464844 180.542969 203.398438 182.96875 205.5625 182.972656 C 207.789062 189 206.550781 187.132812 208.628906 190.175781 C 212.746094 196.214844 219.128906 200.730469 225.566406 202.675781 C 233.46875 205.0625 243.480469 203.625 248.214844 200.84375 C 254.734375 197.015625 260.152344 190.648438 262.316406 182.664062 C 263.277344 182.53125 265.875 181.023438 266.042969 179.589844 C 266.082031 179.257812 266.035156 178.753906 265.605469 178.222656 Z M 150.457031 139.980469 C 154.699219 153.386719 164.914062 175.609375 166.101562 177.25 C 163.644531 177.417969 163.554688 177.492188 157.695312 177.300781 C 138.351562 176.664062 152.023438 178.222656 114.839844 176.988281 C 116.222656 172.320312 119.117188 168.628906 121.21875 164.175781 C 123.847656 158.628906 126.144531 152.890625 128.664062 147.332031 C 133.234375 137.144531 137.136719 128.933594 139.59375 118.425781 C 140.445312 118.410156 141.261719 118.367188 142.335938 118.132812 C 144.066406 120.238281 149.605469 137.371094 150.457031 139.980469 Z M 159.546875 104.582031 C 159.640625 104.464844 159.71875 104.34375 159.769531 104.214844 C 159.773438 104.324219 159.6875 104.480469 159.546875 104.582031 Z M 174.820312 110.636719 C 174.804688 110.613281 174.792969 110.585938 174.785156 110.558594 C 174.804688 110.550781 174.835938 110.546875 174.871094 110.550781 C 174.863281 110.574219 174.84375 110.609375 174.820312 110.636719 Z M 183.914062 114.214844 C 183.894531 114.1875 183.882812 114.15625 183.875 114.125 C 183.910156 114.117188 183.921875 114.121094 183.933594 114.128906 C 183.929688 114.15625 183.921875 114.1875 183.914062 114.214844 Z M 202.121094 108.894531 C 202.117188 108.871094 202.117188 108.851562 202.121094 108.832031 C 202.164062 108.839844 202.203125 108.859375 202.234375 108.882812 Z M 245.238281 177.433594 C 237.601562 177.855469 229.921875 177.097656 224.988281 177.144531 C 218.109375 177.097656 214.621094 177.664062 208.894531 177.238281 C 209.140625 177.003906 208.972656 177.144531 209.28125 176.886719 C 209.761719 175.644531 209.636719 175.304688 211.125 172.53125 C 213.367188 168.582031 220.703125 151.316406 223.621094 142.734375 C 231.648438 119.121094 230.832031 120.40625 232.683594 118.039062 C 233.566406 118.242188 234.46875 118.367188 235.382812 118.410156 C 238.109375 130 241.734375 136.839844 251.085938 158.261719 C 256.828125 171.226562 258.582031 171.625 260.152344 177.050781 C 260.152344 177.050781 254.574219 177.027344 245.238281 177.433594 Z M 245.238281 177.433594 " fill-opacity="1" fill-rule="nonzero"/></g></svg>