<svg xmlns="http://www.w3.org/2000/svg" xmlns:xlink="http://www.w3.org/1999/xlink" width="500" zoomAndPan="magnify" viewBox="0 0 375 374.999991" height="500" preserveAspectRatio="xMidYMid meet" version="1.0"><defs><clipPath id="03e1088235"><path d="M 18 49.300781 L 356 49.300781 L 356 326 L 18 326 Z M 18 49.300781 " clip-rule="nonzero"/></clipPath><clipPath id="4d45aa3689"><path d="M 108.695312 72.109375 L 266.195312 72.109375 L 266.195312 242 L 108.695312 242 Z M 108.695312 72.109375 " clip-rule="nonzero"/></clipPath></defs><g clip-path="url(#03e1088235)"><path fill="#ffffff" d="M 273.832031 49.496094 C 273.785156 49.5 273.753906 49.5 273.738281 49.515625 C 274.175781 52.175781 277.917969 53.679688 279.167969 56.089844 C 280.929688 57.910156 283.859375 61.5625 285.6875 64.230469 C 287.511719 66.894531 289.433594 69.515625 289.957031 70.058594 C 290.476562 70.601562 292.003906 72.40625 293.347656 74.0625 C 296.230469 77.617188 303.246094 84.496094 307.925781 88.355469 C 309.757812 89.867188 311.964844 91.71875 312.84375 92.472656 C 315.167969 94.46875 316.167969 94.339844 315.074219 92.167969 C 314.78125 91.585938 314.070312 89.453125 313.492188 87.441406 C 312.914062 85.429688 312.226562 83.363281 311.964844 82.847656 C 310.753906 79.261719 309.449219 75.96875 307.335938 72.765625 C 306.21875 70.660156 304.960938 68.589844 303.410156 66.917969 C 301.558594 64.054688 298.632812 61.796875 296.09375 59.847656 C 289.988281 55.460938 283.320312 52.855469 276.347656 50.296875 C 275.210938 49.808594 274.164062 49.480469 273.832031 49.496094 Z M 96.390625 51.59375 C 91.921875 51.761719 87.664062 55.257812 83.5625 56.738281 C 77.75 59.484375 74.53125 61.710938 70.488281 65.753906 C 66.996094 69.246094 61.511719 77.675781 60.941406 80.429688 C 60.472656 82.6875 58.824219 88.359375 57.910156 90.796875 C 57.472656 91.96875 56.9375 93.546875 56.730469 94.300781 C 56.175781 96.292969 57.074219 95.996094 60.121094 93.195312 C 61.605469 91.835938 63.789062 89.996094 64.960938 89.097656 C 66.136719 88.203125 67.664062 86.917969 68.355469 86.242188 C 69.046875 85.5625 70.972656 83.730469 72.640625 82.179688 C 74.3125 80.632812 76.902344 77.660156 78.398438 75.570312 C 79.894531 73.476562 82.699219 69.605469 84.628906 66.953125 C 87.160156 63.460938 89.492188 59.867188 92.710938 56.929688 C 95.226562 54.257812 97.285156 51.863281 97.285156 51.613281 C 96.984375 51.59375 96.6875 51.582031 96.386719 51.59375 Z M 305.621094 65.105469 L 308.289062 68.039062 C 309.761719 69.65625 311.148438 71.113281 311.359375 71.28125 C 314.046875 75.175781 315.65625 79.449219 316.484375 84.085938 C 316.964844 85.597656 317.8125 88.613281 318.371094 90.796875 C 318.929688 92.976562 319.882812 96.542969 320.503906 98.722656 C 322.363281 105.234375 322.40625 105.429688 321.992188 105.429688 C 321.773438 105.429688 320.726562 104.441406 319.667969 103.21875 C 315.707031 98.660156 314.628906 97.714844 307.375 92.664062 C 305.027344 91.027344 302.59375 89.242188 301.980469 88.679688 C 301.367188 88.117188 299.992188 87.136719 298.929688 86.507812 C 296.910156 85.304688 295.699219 83.957031 292.089844 78.902344 L 289.917969 75.855469 L 290.335938 78.902344 C 290.828125 82.472656 291.816406 85.34375 294.433594 90.796875 C 296.378906 94.84375 303.855469 103.042969 309.203125 106.996094 C 318.746094 114.039062 327.347656 122.394531 329.308594 126.527344 C 329.875 127.722656 330.484375 128.574219 330.644531 128.414062 C 330.800781 128.257812 330.902344 120.21875 330.871094 110.539062 C 330.816406 91.945312 330.523438 89.695312 327.441406 83.476562 C 323.375 75.265625 314.15625 66.996094 307.414062 65.503906 Z M 64.199219 67.660156 C 62.09375 67.75 56.136719 71.175781 52.628906 74.632812 C 45.964844 81.210938 43.503906 85.527344 42.128906 93.007812 C 40.597656 101.355469 40.488281 104.300781 41.386719 112.75 C 41.867188 117.277344 42.113281 123.109375 41.9375 125.707031 C 41.738281 128.707031 41.851562 130.433594 42.242188 130.433594 C 42.585938 130.433594 43.039062 129.953125 43.253906 129.367188 C 44.703125 125.417969 51.558594 117.804688 57.910156 113.09375 C 68.503906 105.234375 76.394531 95.855469 79.75 87.136719 C 81.871094 81.628906 82.292969 79.070312 81.0625 79.324219 C 80.542969 79.429688 79.664062 80.335938 79.101562 81.34375 C 77.691406 83.859375 73.644531 87.621094 66.789062 92.796875 C 60.457031 97.917969 53.460938 102.285156 49.351562 109.644531 C 47.570312 113.90625 48.007812 110.976562 49.980469 105.414062 C 51.105469 102.242188 52.496094 97.441406 53.066406 94.757812 C 54.664062 87.296875 55.796875 82.832031 56.878906 79.816406 C 58.234375 76.050781 61.523438 70.945312 63.398438 69.71875 C 64.25 69.15625 64.960938 68.453125 64.960938 68.15625 C 64.960938 67.78125 64.683594 67.636719 64.199219 67.660156 Z M 332.226562 87.136719 C 331.476562 87.269531 331.75 88.410156 333.046875 90.488281 C 333.464844 91.160156 334.28125 93.363281 334.855469 95.367188 C 335.765625 98.539062 335.835938 100.378906 335.390625 109.394531 C 335.109375 115.101562 334.851562 125.628906 334.835938 132.796875 C 334.820312 140.921875 334.636719 145.058594 334.324219 143.773438 C 332.984375 138.261719 332.253906 136.53125 329.691406 132.644531 C 328.167969 130.335938 324.734375 126.492188 322.070312 124.109375 C 315.023438 117.796875 308.113281 110.882812 306.84375 108.882812 C 306.230469 107.914062 305.511719 107.371094 305.222656 107.660156 C 304.6875 108.199219 306.234375 114.664062 307.679688 117.933594 C 309.304688 122.488281 310.941406 126.746094 313.78125 130.683594 C 318.304688 137.824219 324.003906 144.1875 328.414062 151.378906 C 330.960938 155.148438 333.507812 160.550781 334.875 165.042969 C 335.511719 167.136719 336.179688 168.851562 336.363281 168.855469 C 340.054688 161.023438 340.789062 151.121094 343.910156 143.546875 C 348.390625 133.320312 347.476562 112.359375 342.097656 101.773438 C 339.648438 96.449219 336.589844 91.34375 332.398438 87.136719 C 332.339844 87.136719 332.277344 87.125 332.226562 87.136719 Z M 39.578125 89.824219 C 38.769531 90.003906 36.203125 92.957031 34.070312 96.683594 C 31.925781 100.566406 29.792969 104.535156 28.066406 108.574219 C 27.953125 109.359375 27.550781 110.964844 27.171875 112.140625 C 25.308594 123.367188 25.121094 135.351562 29.535156 145.984375 C 30.210938 148 31.613281 151.976562 32.660156 154.828125 C 33.707031 157.679688 34.6875 160.699219 34.832031 161.535156 C 35.074219 162.953125 35.742188 165.710938 36.011719 166.414062 C 36.078125 166.582031 36.339844 167.652344 36.605469 168.777344 L 37.082031 170.816406 L 37.804688 169.082031 C 38.199219 168.125 38.871094 166.027344 39.3125 164.433594 C 40.800781 159.542969 45.339844 152.410156 48.25 148.445312 C 50.902344 144.519531 53.433594 140.640625 53.871094 139.828125 C 56.570312 136.148438 59.371094 132.546875 61.304688 128.375 C 61.304688 128.082031 62.09375 126.160156 63.054688 124.105469 C 66.035156 117.753906 67.757812 110.308594 66.257812 110.308594 C 65.964844 110.308594 64.582031 111.820312 63.191406 113.664062 C 61.796875 115.507812 60.449219 117.019531 60.199219 117.019531 C 50.316406 124.46875 40.898438 134.652344 38.433594 147.109375 C 37.640625 151.882812 37.515625 148.6875 38.207031 141.410156 C 38.917969 133.886719 38.601562 127.8125 36.832031 115.320312 C 35.53125 106.125 36.355469 97.578125 39.082031 92.109375 C 39.9375 90.398438 40 89.726562 39.578125 89.824219 Z M 351.019531 131.769531 C 350.722656 131.769531 350.5625 133.386719 350.351562 137.753906 C 349.609375 146.238281 347.382812 154.1875 343.988281 161.957031 C 340.445312 169.359375 337.429688 177.085938 335.886719 185.167969 C 335.332031 189.003906 334.808594 187.582031 334.648438 181.757812 C 334.492188 176.15625 333.898438 173.632812 331.714844 169.273438 C 330.367188 166.394531 329.5 163.34375 327.539062 160.738281 C 323.949219 155.796875 321.167969 150.144531 318.375 144.765625 C 317.546875 143.089844 316.859375 141.375 316.847656 140.953125 C 316.816406 139.628906 315.765625 140.132812 315.382812 141.660156 C 314.707031 144.347656 315.914062 153.472656 318.429688 164.585938 C 319.945312 171.28125 323.351562 183.332031 325.328125 188.980469 C 327.148438 194.171875 327.828125 199.652344 327.425781 205.902344 C 326.996094 212.597656 327.453125 213.613281 329.464844 210.476562 C 330.058594 209.554688 334.296875 203.835938 338.878906 197.765625 C 343.464844 191.695312 347.800781 185.519531 348.523438 184.042969 C 356.097656 168.601562 357.34375 145.761719 351.363281 132.265625 C 351.222656 131.949219 351.121094 131.769531 351.019531 131.769531 Z M 21.742188 134.417969 C 20.429688 135.730469 18.007812 149.136719 18.007812 155.09375 C 18.007812 160.871094 19.046875 169.332031 20.21875 173.085938 C 23.578125 184.660156 28.96875 195.003906 37.636719 203.75 C 40.214844 206.9375 42.914062 210.667969 43.640625 212.058594 C 45.929688 216.453125 46.363281 215.4375 46.363281 205.597656 C 46.421875 199.160156 46.988281 193.160156 49.414062 187.148438 L 51.242188 180.746094 C 51.722656 179.070312 52.5625 176.050781 53.09375 174.039062 C 53.621094 172.027344 54.457031 168.980469 54.941406 167.273438 C 55.902344 163.46875 55.785156 159.554688 56.714844 155.742188 C 57.664062 151.804688 57.972656 140.800781 57.132812 140.800781 C 52.558594 145.867188 42.605469 169.851562 41.621094 171.597656 C 39.191406 178.226562 38.769531 180.664062 39.027344 187.054688 C 39.308594 194.070312 38.578125 194.734375 37.578125 188.371094 C 36.3125 180.316406 34.507812 174.332031 31.765625 169.179688 C 30.90625 167.558594 30.203125 165.996094 30.203125 165.710938 C 30.203125 165.425781 29.382812 163.457031 28.375 161.328125 C 27.367188 159.199219 26.546875 157.253906 26.546875 157 C 26.546875 156.75 26.160156 155.675781 25.6875 154.617188 C 23.726562 150.21875 22.828125 146.257812 22.46875 140.34375 C 22.257812 136.902344 21.929688 134.230469 21.742188 134.417969 Z M 318.050781 176.78125 C 315.496094 181.257812 314.789062 187.042969 313.207031 191.894531 C 312.328125 196.355469 310.121094 216.585938 310.121094 220.234375 C 310.121094 226.445312 306.542969 243.539062 304.480469 247.21875 C 302.691406 250.414062 302.28125 251.433594 302.574219 251.90625 C 309.128906 248.132812 315.539062 243.839844 321.707031 239.597656 C 323.628906 238.53125 325.265625 237.007812 327.195312 235.9375 C 328.46875 234.929688 329.652344 234.109375 329.828125 234.109375 C 340.019531 226.035156 348.769531 216.085938 353 203.613281 C 355.457031 196.226562 356.753906 184.117188 355.460938 180.746094 C 354.933594 179.371094 354.042969 180.746094 354.03125 182.957031 C 354.019531 184.882812 350.984375 192.640625 349.761719 193.859375 C 349.59375 194.027344 348.632812 195.378906 347.625 196.867188 C 346.621094 198.359375 342.746094 202.75 339.011719 206.625 C 335.28125 210.5 331.195312 214.914062 329.941406 216.421875 C 327.667969 218.890625 325.6875 221.355469 323.957031 224.253906 C 322.511719 226.160156 320.175781 229.695312 319.917969 230.03125 C 317.941406 232.570312 316.894531 234.164062 316.773438 234.242188 C 316.8125 234.066406 317.519531 232.757812 318.90625 229.953125 C 320.449219 226.839844 321.550781 223.074219 322.335938 217.585938 C 323.121094 212.113281 322.765625 207.558594 320.792969 197.824219 C 319.238281 190.144531 318.660156 185.550781 318.660156 181.128906 C 318.660156 178.632812 318.398438 176.78125 318.050781 176.78125 Z M 55.796875 181.203125 C 55.429688 181.171875 55.210938 181.847656 55.207031 183.28125 C 55.199219 185.824219 53.285156 196.769531 52.082031 201.175781 C 51.636719 202.808594 51.324219 207.875 51.320312 213.679688 C 51.359375 220.074219 51.441406 226.707031 54.996094 232.296875 C 55.882812 233.640625 56.453125 234.898438 56.273438 235.078125 C 53.320312 232.464844 52.109375 228.558594 49.453125 225.664062 C 48.464844 224.210938 45.992188 221.191406 43.960938 218.957031 C 39.652344 214.210938 29.914062 203.917969 27.917969 201.976562 C 27.15625 201.238281 26.542969 200.441406 26.542969 200.222656 C 26.542969 200.003906 25.761719 198.835938 24.808594 197.613281 C 22.53125 194.691406 19.746094 188.660156 19.511719 186.160156 C 19.410156 185.066406 19.027344 183.675781 18.671875 183.070312 C 17.667969 181.34375 17.84375 193.871094 18.902344 199.652344 C 20.019531 205.746094 20.914062 208.253906 24.21875 214.476562 C 27.324219 220.328125 32.5625 226.792969 37.214844 230.503906 C 39.054688 231.972656 40.570312 233.394531 40.570312 233.648438 C 46.917969 238.074219 53.332031 242.78125 59.683594 246.933594 C 60.078125 246.945312 62.722656 248.570312 65.574219 250.535156 C 72.507812 255.308594 72.546875 255.300781 70.222656 250.324219 C 69.425781 248.613281 68.347656 246.257812 67.84375 245.085938 C 66.035156 240.890625 64.089844 230.152344 63.421875 220.691406 C 62.453125 207.046875 59.996094 191.46875 57.742188 184.746094 C 56.976562 182.464844 56.269531 181.242188 55.796875 181.203125 Z M 306.464844 211.980469 C 306.394531 211.964844 306.332031 211.980469 306.253906 212 C 305.789062 212.121094 305.09375 212.898438 304.121094 214.402344 C 303.074219 216.015625 301.539062 218.136719 300.6875 219.109375 C 296.714844 224.695312 293.0625 230.734375 290.609375 237.136719 C 290.609375 237.492188 290.332031 238.269531 290 238.851562 C 289.664062 239.433594 288.300781 243.195312 286.96875 247.21875 C 284.058594 256.007812 282.863281 259.394531 282.144531 260.808594 C 281.851562 261.390625 281.019531 263.089844 280.296875 264.601562 C 278.042969 269.308594 275.242188 273.3125 271.875 276.683594 C 270.769531 277.789062 269.875 278.816406 269.875 278.96875 C 269.875 279.46875 272.363281 279.257812 273.476562 278.664062 C 274.804688 277.953125 282.375 276.214844 286.949219 275.578125 C 295.53125 274.378906 298.683594 273.570312 306.484375 270.601562 C 311.796875 268.578125 322.257812 261.367188 328.113281 255.679688 C 333.183594 250.757812 337.757812 244.398438 340.578125 238.355469 C 342.351562 234.558594 345.058594 225.554688 344.578125 225.074219 C 344.453125 224.949219 343.789062 225.898438 343.09375 227.1875 C 341.082031 230.90625 340.511719 231.667969 336.957031 235.5 C 333.789062 238.910156 327.988281 243.765625 325.980469 244.683594 C 325.476562 244.914062 324.242188 245.625 323.234375 246.265625 C 322.226562 246.90625 319.347656 248.433594 316.832031 249.65625 C 314.316406 250.882812 311.847656 252.125 311.34375 252.421875 C 310.839844 252.71875 308.960938 253.679688 307.167969 254.554688 C 300.789062 258.101562 294.542969 261.945312 289.046875 266.734375 C 287.835938 267.90625 286.691406 268.867188 286.492188 268.867188 C 286.164062 268.867188 288.175781 266.410156 289.730469 264.921875 C 295.039062 258.628906 298.886719 251.371094 300.574219 243.253906 C 301.101562 240.738281 301.976562 235.800781 302.519531 232.277344 C 303.867188 223.570312 305.148438 217.789062 306.3125 215.03125 C 306.976562 213.453125 307.082031 212.523438 306.65625 212.09375 C 306.601562 212.042969 306.53125 211.996094 306.464844 211.980469 Z M 67.007812 213.984375 C 65.496094 214.054688 69.453125 222.535156 69.253906 224.65625 C 71.316406 233.996094 71.675781 236 71.675781 237.824219 C 71.675781 242.03125 75.9375 256.054688 77.773438 257.890625 C 79.738281 261.632812 81.753906 264.882812 85.246094 267.289062 L 89.664062 271.519531 L 85.910156 269.003906 C 83.851562 267.617188 81.757812 266.050781 81.242188 265.535156 C 75.410156 262.03125 70.136719 257.402344 63.710938 254.785156 C 44.339844 245.855469 36.863281 240.25 30.644531 229.972656 C 29.121094 227.457031 28.960938 227.320312 29.273438 228.925781 C 29.464844 229.929688 29.777344 231.570312 29.957031 232.566406 C 33.449219 242.820312 39.222656 251.789062 47.320312 259.113281 C 49.066406 260.621094 51.070312 262.375 51.777344 263 C 59.933594 269.492188 69.570312 273.964844 79.90625 275.613281 L 90.578125 277.445312 C 91.804688 277.664062 105.46875 281.445312 103.957031 279.234375 C 102.199219 279.234375 96.132812 271.136719 92.980469 264.601562 C 92.253906 263.089844 91.410156 261.390625 91.113281 260.808594 C 90.433594 259.472656 89.335938 256.417969 86.273438 247.332031 C 82.984375 237.582031 78.546875 228.515625 74.570312 223.433594 C 74.308594 223.097656 72.738281 221.078125 71.066406 218.9375 C 69.390625 216.796875 68.015625 214.808594 68.015625 214.515625 C 67.546875 214.140625 67.222656 213.972656 67.003906 213.980469 Z M 283.636719 247.164062 C 282.652344 247.195312 277.816406 250.695312 274.527344 253.8125 C 272.691406 255.554688 270.136719 257.84375 268.847656 258.902344 C 267.558594 259.957031 262.433594 264.828125 257.453125 269.726562 C 249.128906 277.839844 240.203125 284.898438 228.179688 286.554688 C 227.335938 286.554688 226.496094 286.808594 226.3125 287.105469 C 225.875 287.8125 227.40625 288.382812 229.703125 288.382812 C 231.4375 288.382812 236.984375 289.535156 242.128906 290.957031 C 243.472656 291.328125 245.667969 291.839844 247.007812 292.101562 C 248.347656 292.363281 252.054688 293.125 255.242188 293.796875 C 266.503906 296.144531 278.335938 297.105469 289.390625 293.167969 C 298.96875 289.882812 307.570312 283.867188 314.054688 276.109375 C 316.222656 273.820312 320.375 266.761719 319.332031 267.132812 C 319.007812 267.25 317.277344 268.714844 315.484375 270.394531 C 312.0625 273.589844 310.707031 274.582031 308.449219 275.558594 C 307.699219 275.882812 305.914062 276.714844 304.484375 277.40625 C 300.460938 279.351562 292.550781 280.855469 280.550781 281.960938 C 270.839844 282.890625 261.089844 284.605469 251.429688 285.238281 C 256.761719 283.671875 261.703125 281.09375 266.140625 277.730469 C 268.238281 275.90625 273.601562 267.980469 275.441406 263.988281 C 275.984375 262.816406 277.195312 260.207031 278.148438 258.195312 C 279.101562 256.183594 279.90625 254.386719 279.921875 254.214844 C 279.933594 254.039062 280.863281 252.453125 281.996094 250.6875 C 283.132812 248.921875 283.925781 247.355469 283.769531 247.199219 C 283.742188 247.171875 283.703125 247.160156 283.636719 247.160156 Z M 89.992188 248.34375 C 89.441406 248.386719 89.828125 249.398438 91.078125 251.355469 C 93.632812 255.351562 93.953125 255.945312 97.464844 262.769531 C 101.789062 271.175781 104.523438 275.328125 107.753906 278.417969 C 110.777344 281.304688 116.253906 284.371094 119.457031 284.972656 C 120.652344 285.195312 122.066406 286.058594 122.066406 286.058594 C 122.066406 286.058594 119.007812 286.015625 117.417969 285.640625 C 114.765625 285.121094 96.703125 283.324219 87.230469 282.648438 C 75.164062 281.785156 65.042969 278.15625 58.492188 272.316406 C 54.851562 269.074219 53.539062 268.960938 55.824219 272.089844 C 56.617188 273.175781 57.835938 274.867188 58.527344 275.863281 C 64.171875 282.78125 71.722656 289.144531 79.949219 292.574219 C 80.757812 293.308594 84.039062 294.445312 89.058594 295.71875 C 94.511719 297.105469 104.152344 297.21875 112.804688 296.007812 C 116.425781 295.496094 119.636719 294.929688 119.933594 294.75 C 120.230469 294.566406 121.769531 294.171875 123.363281 293.890625 C 124.953125 293.609375 128.316406 292.789062 130.832031 292.0625 C 133.347656 291.332031 138.269531 290.125 141.773438 289.375 L 148.136719 288 L 145.125 287.238281 C 143.46875 286.816406 141.214844 286.078125 140.113281 285.601562 C 134.871094 283.46875 129.292969 282.019531 124.734375 278.359375 C 123.5625 277.480469 120.117188 274.363281 117.09375 271.441406 C 109.019531 263.636719 101.0625 256.378906 96.890625 253.011719 C 92.949219 249.832031 90.703125 248.289062 89.992188 248.34375 Z M 205.480469 287.011719 C 202.199219 287.0625 198.640625 287.378906 194.863281 288.039062 C 194.035156 288.1875 192.355469 288.515625 191.148438 288.917969 C 187.414062 290.152344 186.398438 290.1875 184.039062 289.144531 C 182.171875 288.320312 179.539062 287.585938 169.554688 287.5625 C 163.738281 287.664062 158.078125 287.898438 152.59375 289.851562 C 149.246094 290.515625 146.136719 292.105469 142.875 293.070312 C 140.78125 293.925781 137.390625 295.273438 135.347656 296.042969 C 133.304688 296.816406 129.859375 298.277344 127.6875 299.304688 C 122.4375 301.785156 115.265625 303.582031 108.707031 304.046875 C 101.972656 304.527344 94.519531 303.113281 88.332031 300.199219 C 83.566406 297.953125 83.265625 297.863281 83.265625 298.710938 C 88.828125 305.359375 96.234375 309.65625 104.167969 312.855469 C 106.75 314.222656 117.945312 315.910156 121.378906 315.445312 C 125.339844 314.90625 132.480469 313.441406 133.996094 312.855469 C 139.203125 310.832031 141.484375 309.730469 146.078125 307.023438 C 150.191406 304.519531 154.027344 301.691406 158.046875 299.09375 C 164.628906 294.066406 173.398438 291.125 178.1875 292.328125 C 179.746094 292.71875 179.476562 292.945312 174.414062 295.53125 C 167.199219 299.214844 161.71875 302.839844 154.347656 308.792969 C 147.074219 314.671875 142.230469 319.269531 142.511719 320.039062 C 142.625 320.347656 144.09375 321.707031 145.773438 323.066406 C 147.449219 324.429688 149.128906 325.550781 149.507812 325.566406 C 149.886719 325.578125 150.988281 324.550781 151.945312 323.296875 C 155.261719 318.953125 168.253906 306.765625 171.613281 304.847656 C 174.902344 302.878906 177.59375 300.039062 181.125 298.425781 C 182.460938 297.769531 183.933594 296.882812 184.382812 296.464844 C 186.230469 294.734375 191.902344 296.605469 197.304688 300.714844 C 198.140625 301.351562 199.925781 302.691406 201.269531 303.707031 C 205.34375 306.792969 208.410156 309.300781 211.273438 311.863281 C 214.71875 314.976562 217.492188 318.394531 220.992188 321.371094 C 223.324219 323.769531 224.992188 325.007812 225.71875 324.878906 C 227.207031 324.617188 232.054688 319.570312 231.703125 318.648438 C 231.058594 316.96875 221.386719 308.964844 213.769531 303.800781 C 210.917969 301.867188 208.449219 300.125 208.28125 299.933594 C 208.113281 299.738281 207.152344 299.144531 206.144531 298.617188 C 205.140625 298.09375 202.300781 296.574219 199.839844 295.246094 L 195.359375 292.824219 L 197.324219 292.441406 C 202.96875 291.3125 207.664062 292.777344 215.714844 298.179688 C 218.953125 300.4375 221.96875 302.929688 225.46875 304.753906 C 235.035156 311.085938 244.878906 314.109375 255.886719 314.113281 C 264.65625 314.113281 270.25 312.550781 278.738281 307.746094 C 284.1875 304.660156 292.578125 297.460938 291.714844 296.597656 C 291.523438 296.40625 289.757812 297.132812 287.789062 298.199219 C 281.449219 301.632812 276.796875 302.609375 266.824219 302.601562 C 259.398438 302.53125 252.453125 301.386719 245.632812 298.238281 C 240.070312 295.503906 234.167969 293.378906 228.40625 291.128906 C 226.214844 290.09375 223.851562 289.746094 221.542969 289.070312 C 217.996094 287.960938 212.960938 287.046875 206.871094 287.011719 C 206.414062 287.007812 205.949219 287.003906 205.480469 287.011719 Z M 205.480469 287.011719 " fill-opacity="1" fill-rule="nonzero"/></g><g clip-path="url(#4d45aa3689)"><path fill="#ffffff" d="M 265.761719 178.316406 C 262.375 173.351562 239.023438 121.417969 238.679688 118.34375 C 246.082031 117.222656 250.800781 111.136719 250.828125 104.820312 C 250.847656 99.796875 246.023438 98.214844 243.96875 100.441406 C 242.597656 101.925781 243.460938 104.371094 244.847656 104.476562 C 244.859375 106.804688 243.679688 107.46875 241.917969 109.191406 C 240.210938 110.859375 234.28125 108.753906 232.089844 107.828125 C 228.621094 106.359375 225.457031 104.355469 221.296875 101.828125 L 221.300781 101.835938 C 216.394531 98.929688 214.210938 98.066406 211.8125 97.242188 L 211.8125 97.234375 C 202.824219 94.640625 198.90625 97.292969 196.234375 98.796875 L 196.292969 98.824219 L 196.207031 98.835938 C 194.167969 100.117188 193.253906 100.90625 191.4375 101.339844 C 191.4375 101.339844 190.695312 101.03125 190.695312 101.03125 C 190.15625 100.804688 189.910156 97.175781 190.640625 95.578125 C 191.984375 92.640625 196.453125 92.183594 197.292969 86.984375 C 197.980469 82.855469 195.664062 79.898438 192.65625 77.105469 C 192.65625 77.105469 192.699219 77.082031 192.699219 77.082031 C 192.652344 77.105469 191.648438 76.09375 191.550781 76 C 191.039062 75.503906 190.683594 74.871094 190.28125 74.285156 C 188.792969 72.109375 187.257812 72.648438 187.503906 72.625 C 184.816406 72.867188 184.402344 75.359375 183.394531 76.253906 L 182.355469 77.226562 L 182.394531 77.242188 C 181.042969 78.503906 178.785156 80.457031 178.027344 83.78125 C 177.136719 87.554688 178.683594 90.285156 181.648438 92.65625 C 183.691406 94.289062 185.488281 95.175781 184.898438 99.75 C 184.648438 101.707031 184.097656 101.558594 182.949219 101.117188 C 177.246094 98.9375 173.625 90.234375 152.699219 102.539062 L 152.71875 102.554688 C 151.941406 103.023438 151.902344 103.023438 150.988281 103.621094 L 150.972656 103.699219 C 147.425781 105.628906 143.878906 107.988281 139.148438 109.195312 C 137.769531 109.546875 136.269531 110.117188 134.835938 109.800781 C 132.308594 109.238281 130.164062 106.296875 130.359375 104.492188 C 130.355469 104.519531 131.167969 104.09375 131.242188 104.023438 C 132.921875 102.402344 131.460938 98.792969 128.023438 99.558594 C 120.609375 101.207031 124.878906 117.25 136.535156 118.238281 C 136.34375 119.867188 120.953125 156.664062 109.605469 177.796875 C 109.25 178.734375 108.753906 179.070312 109.054688 179.976562 C 109.464844 181.203125 111.363281 182.316406 112.570312 182.761719 C 112.753906 182.765625 112.75 182.765625 112.75 182.765625 C 114.617188 190.027344 120.113281 196.628906 124.976562 199.867188 C 131.71875 204.359375 141.71875 204.355469 146.066406 203.59375 C 154.175781 202.214844 165.414062 195.175781 168.558594 185.765625 C 168.984375 184.496094 168.996094 184.480469 169.523438 183.074219 C 171.613281 183.089844 172.574219 180.703125 172.871094 180.289062 C 172.976562 178.882812 172.457031 177.945312 171.039062 177.507812 C 166.953125 168.378906 166.070312 170.496094 157.199219 148.109375 C 147.078125 122.496094 150.015625 125.25 145.675781 117.011719 C 146.023438 116.8125 146.375 116.613281 146.726562 116.417969 C 146.683594 116.449219 146.671875 116.546875 146.671875 116.597656 C 148.304688 115.707031 151.101562 112.566406 155.519531 110.089844 L 155.511719 110.011719 C 157.851562 109.101562 158.164062 109 158.785156 108.671875 C 161.839844 108.230469 170.660156 106.101562 178.175781 118.214844 L 178.164062 118.320312 C 178.804688 119.59375 180.769531 124.5625 181.074219 125.742188 C 177.851562 126.109375 177.726562 129.171875 177.539062 132.261719 L 177.625 132.21875 C 177.632812 133.125 177.765625 133.953125 177.960938 134.816406 L 177.859375 134.835938 C 178.09375 135.296875 178.027344 135.105469 178.15625 135.671875 L 178.265625 135.636719 C 178.835938 136.773438 179.652344 137.894531 180.511719 138.894531 L 180.773438 139.78125 C 181.3125 141.617188 179.0625 142.78125 178.773438 146.101562 C 178.472656 149.539062 180.074219 150.933594 179.9375 152.75 C 179.753906 155.183594 178.738281 155.878906 179.722656 158.722656 L 179.699219 158.761719 C 179.976562 159.3125 180.171875 159.90625 180.398438 160.476562 C 180.667969 161.167969 181.132812 161.542969 181.136719 162.371094 C 181.140625 163.015625 180.863281 163.632812 180.679688 164.242188 C 177.980469 173.21875 184.636719 176.277344 172.46875 198.824219 L 172.453125 198.800781 C 170.058594 203.351562 168.664062 205.058594 170.59375 211.308594 C 172.335938 216.949219 170.355469 216.90625 164.78125 221.742188 L 164.835938 221.78125 C 164.484375 222.128906 155.566406 232.0625 155.289062 232.371094 C 154.9375 232.757812 156.847656 234.347656 157.121094 234.519531 C 158.808594 235.601562 159.808594 235.539062 164.964844 237.390625 C 183.058594 243.886719 202.574219 242 217.511719 234.96875 C 218.914062 234.28125 219.917969 233.40625 219.832031 231.875 C 219.832031 231.867188 218.625 230.890625 218.5 230.761719 C 218.453125 230.710938 214.414062 226.164062 214.414062 226.101562 C 210.261719 221.296875 210.785156 222.109375 208.933594 220.417969 L 208.90625 220.445312 C 202.445312 215.316406 203.480469 215.96875 205.4375 208.195312 L 205.339844 208.238281 C 205.867188 204.800781 204.945312 203.207031 203.648438 200.359375 L 203.597656 200.410156 C 202.8125 198.929688 202.539062 198.585938 201.691406 196.761719 L 201.671875 196.761719 C 197.523438 187.992188 196.480469 184.957031 195.339844 179.972656 C 195.339844 179.972656 195.207031 178.773438 195.152344 178.148438 L 195.132812 178.152344 C 195.011719 176.050781 195.046875 175.066406 195.160156 173.25 L 195.128906 173.238281 C 195.265625 169.875 195.332031 168.078125 194.808594 165.34375 L 194.816406 165.339844 C 194.78125 165.210938 194.804688 165.332031 194.667969 164.621094 L 194.625 164.640625 C 194.328125 163.546875 194 162.613281 194.199219 161.703125 C 194.339844 161.0625 194.710938 159.839844 195.273438 159.441406 C 196.011719 157.722656 196.0625 156.082031 195.582031 154.296875 C 194.523438 150.359375 198.441406 148.285156 195.113281 142.371094 C 194.140625 140.648438 194.296875 140.640625 194.550781 138.898438 C 194.777344 138.71875 194.929688 138.609375 195.097656 138.335938 L 195.097656 138.371094 L 196.558594 136.324219 C 197.804688 134.574219 198.859375 126.554688 194.207031 125.738281 L 194.097656 125.855469 L 194.066406 125.828125 C 194.503906 124.464844 196.355469 119.785156 196.542969 119.34375 L 196.519531 119.300781 C 200.324219 111.980469 205.960938 108.628906 211.0625 108.28125 C 212.347656 108.191406 212.441406 108.152344 215.089844 108.460938 L 215.082031 108.386719 L 215.132812 108.484375 C 218 109.175781 218.902344 109.664062 221.476562 111.089844 L 221.472656 111.15625 C 222.949219 112.125 222.632812 111.902344 227.859375 116.140625 L 227.753906 115.925781 C 228.335938 116.324219 228.945312 116.679688 229.578125 116.988281 C 225.15625 124.492188 227.378906 125.980469 216.394531 152.050781 C 207.636719 172.9375 208.5 167.902344 204.148438 177.511719 C 202.730469 177.957031 202.21875 178.878906 202.324219 180.207031 C 202.582031 180.636719 203.515625 183.066406 205.683594 183.070312 C 207.910156 189.097656 206.671875 187.226562 208.75 190.273438 C 212.871094 196.3125 219.257812 200.828125 225.699219 202.773438 C 233.609375 205.164062 243.625 203.726562 248.363281 200.945312 C 254.886719 197.117188 260.308594 190.746094 262.476562 182.757812 C 263.433594 182.628906 266.035156 181.117188 266.203125 179.6875 C 266.242188 179.351562 266.195312 178.847656 265.761719 178.316406 Z M 150.539062 140.070312 C 154.785156 153.480469 165.007812 175.703125 166.195312 177.34375 C 163.738281 177.515625 163.644531 177.589844 157.785156 177.394531 C 138.425781 176.757812 152.105469 178.320312 114.902344 177.085938 C 116.285156 172.414062 119.179688 168.722656 121.285156 164.269531 C 123.914062 158.722656 126.210938 152.984375 128.734375 147.421875 C 133.308594 137.234375 137.210938 129.023438 139.671875 118.515625 C 140.523438 118.496094 141.335938 118.453125 142.414062 118.21875 C 144.144531 120.328125 149.691406 137.460938 150.539062 140.070312 Z M 159.636719 104.667969 C 159.730469 104.550781 159.808594 104.429688 159.859375 104.300781 C 159.863281 104.410156 159.777344 104.566406 159.636719 104.667969 Z M 174.917969 110.722656 C 174.90625 110.699219 174.894531 110.671875 174.886719 110.644531 C 174.90625 110.636719 174.9375 110.632812 174.96875 110.636719 C 174.960938 110.660156 174.945312 110.695312 174.917969 110.722656 Z M 184.019531 114.300781 C 184 114.273438 183.988281 114.242188 183.980469 114.210938 C 184.015625 114.203125 184.027344 114.210938 184.039062 114.21875 C 184.035156 114.246094 184.027344 114.273438 184.019531 114.300781 Z M 202.238281 108.980469 C 202.234375 108.957031 202.234375 108.9375 202.238281 108.917969 C 202.28125 108.925781 202.320312 108.945312 202.351562 108.96875 Z M 245.386719 177.53125 C 237.746094 177.949219 230.058594 177.195312 225.121094 177.238281 C 218.238281 177.191406 214.746094 177.757812 209.015625 177.335938 C 209.261719 177.097656 209.09375 177.238281 209.402344 176.984375 C 209.886719 175.742188 209.761719 175.402344 211.246094 172.628906 C 213.492188 168.675781 220.832031 151.410156 223.753906 142.824219 C 231.785156 119.210938 230.96875 120.492188 232.820312 118.128906 C 233.703125 118.328125 234.609375 118.453125 235.519531 118.5 C 238.25 130.089844 241.875 136.929688 251.238281 158.355469 C 256.980469 171.320312 258.734375 171.71875 260.308594 177.144531 C 260.308594 177.144531 254.726562 177.125 245.386719 177.53125 Z M 245.386719 177.53125 " fill-opacity="1" fill-rule="nonzero"/></g></svg>