<svg xmlns="http://www.w3.org/2000/svg" xmlns:xlink="http://www.w3.org/1999/xlink" width="1024" zoomAndPan="magnify" viewBox="0 0 768 191.999996" height="256" preserveAspectRatio="xMidYMid meet" version="1.0"><defs><g/><clipPath id="5c874e08c5"><path d="M 299.8125 2.25 L 468 2.25 L 468 139.5 L 299.8125 139.5 Z M 299.8125 2.25 " clip-rule="nonzero"/></clipPath><clipPath id="7df37dadb8"><path d="M 345.082031 13.59375 L 423.832031 13.59375 L 423.832031 98 L 345.082031 98 Z M 345.082031 13.59375 " clip-rule="nonzero"/></clipPath></defs><g clip-path="url(#5c874e08c5)"><path fill="#000000" d="M 427.082031 2.351562 C 427.058594 2.351562 427.042969 2.351562 427.035156 2.359375 C 427.253906 3.679688 429.113281 4.425781 429.734375 5.625 C 430.609375 6.527344 432.066406 8.34375 432.972656 9.664062 C 433.878906 10.988281 434.835938 12.292969 435.09375 12.5625 C 435.351562 12.832031 436.113281 13.726562 436.777344 14.546875 C 438.210938 16.3125 441.695312 19.730469 444.023438 21.644531 C 444.933594 22.394531 446.027344 23.316406 446.464844 23.691406 C 447.621094 24.683594 448.117188 24.617188 447.574219 23.539062 C 447.425781 23.25 447.074219 22.191406 446.785156 21.191406 C 446.5 20.191406 446.15625 19.164062 446.03125 18.910156 C 445.425781 17.128906 444.777344 15.492188 443.730469 13.90625 C 443.175781 12.859375 442.546875 11.828125 441.777344 11 C 440.859375 9.578125 439.40625 8.457031 438.140625 7.488281 C 435.109375 5.3125 431.796875 4.015625 428.332031 2.746094 C 427.769531 2.503906 427.25 2.34375 427.082031 2.351562 Z M 338.925781 3.390625 C 336.707031 3.472656 334.589844 5.210938 332.550781 5.945312 C 329.664062 7.308594 328.066406 8.414062 326.058594 10.421875 C 324.320312 12.15625 321.597656 16.34375 321.3125 17.710938 C 321.082031 18.832031 320.261719 21.644531 319.808594 22.855469 C 319.589844 23.441406 319.324219 24.222656 319.222656 24.597656 C 318.945312 25.585938 319.390625 25.4375 320.90625 24.050781 C 321.644531 23.375 322.726562 22.460938 323.3125 22.015625 C 323.894531 21.570312 324.652344 20.929688 324.996094 20.59375 C 325.339844 20.257812 326.296875 19.347656 327.125 18.578125 C 327.957031 17.808594 329.242188 16.335938 329.984375 15.296875 C 330.730469 14.257812 332.125 12.335938 333.082031 11.019531 C 334.339844 9.28125 335.496094 7.5 337.097656 6.039062 C 338.347656 4.714844 339.371094 3.527344 339.371094 3.402344 C 339.21875 3.390625 339.074219 3.386719 338.925781 3.390625 Z M 442.875 10.101562 L 444.203125 11.558594 C 444.933594 12.359375 445.621094 13.082031 445.726562 13.167969 C 447.0625 15.101562 447.863281 17.222656 448.273438 19.527344 C 448.511719 20.273438 448.933594 21.773438 449.210938 22.855469 C 449.488281 23.9375 449.960938 25.710938 450.269531 26.792969 C 451.195312 30.027344 451.214844 30.125 451.011719 30.125 C 450.902344 30.125 450.382812 29.632812 449.855469 29.027344 C 447.886719 26.761719 447.351562 26.292969 443.746094 23.785156 C 442.582031 22.972656 441.375 22.085938 441.066406 21.804688 C 440.761719 21.527344 440.082031 21.039062 439.554688 20.726562 C 438.550781 20.132812 437.949219 19.460938 436.152344 16.953125 L 435.074219 15.4375 L 435.28125 16.953125 C 435.527344 18.726562 436.019531 20.148438 437.320312 22.855469 C 438.285156 24.867188 442 28.9375 444.65625 30.902344 C 449.398438 34.398438 453.671875 38.546875 454.644531 40.601562 C 454.925781 41.195312 455.230469 41.617188 455.308594 41.535156 C 455.386719 41.457031 455.4375 37.46875 455.421875 32.660156 C 455.394531 23.429688 455.25 22.3125 453.71875 19.222656 C 451.695312 15.144531 447.117188 11.039062 443.765625 10.300781 Z M 322.929688 11.367188 C 321.886719 11.414062 318.925781 13.113281 317.183594 14.832031 C 313.871094 18.097656 312.648438 20.242188 311.96875 23.953125 C 311.207031 28.101562 311.152344 29.5625 311.597656 33.757812 C 311.835938 36.007812 311.957031 38.902344 311.871094 40.191406 C 311.773438 41.683594 311.828125 42.539062 312.023438 42.539062 C 312.191406 42.539062 312.417969 42.300781 312.527344 42.011719 C 313.246094 40.046875 316.652344 36.269531 319.808594 33.929688 C 325.070312 30.027344 328.988281 25.367188 330.65625 21.039062 C 331.710938 18.304688 331.921875 17.035156 331.3125 17.160156 C 331.050781 17.214844 330.617188 17.664062 330.335938 18.164062 C 329.632812 19.414062 327.625 21.28125 324.21875 23.851562 C 321.074219 26.394531 317.597656 28.5625 315.554688 32.214844 C 314.671875 34.332031 314.886719 32.878906 315.867188 30.113281 C 316.425781 28.539062 317.117188 26.15625 317.402344 24.824219 C 318.195312 21.121094 318.757812 18.902344 319.296875 17.40625 C 319.96875 15.535156 321.601562 13 322.535156 12.390625 C 322.957031 12.113281 323.308594 11.761719 323.308594 11.613281 C 323.308594 11.429688 323.171875 11.359375 322.929688 11.367188 Z M 456.09375 21.039062 C 455.722656 21.105469 455.859375 21.671875 456.503906 22.707031 C 456.710938 23.039062 457.117188 24.132812 457.402344 25.128906 C 457.855469 26.703125 457.890625 27.617188 457.667969 32.09375 C 457.527344 34.925781 457.398438 40.152344 457.390625 43.714844 C 457.382812 47.746094 457.292969 49.800781 457.136719 49.164062 C 456.46875 46.425781 456.109375 45.566406 454.835938 43.636719 C 454.078125 42.492188 452.371094 40.582031 451.046875 39.398438 C 447.550781 36.265625 444.117188 32.832031 443.484375 31.835938 C 443.179688 31.359375 442.820312 31.085938 442.679688 31.230469 C 442.414062 31.5 443.179688 34.707031 443.898438 36.332031 C 444.707031 38.59375 445.519531 40.707031 446.929688 42.664062 C 449.175781 46.210938 452.007812 49.367188 454.203125 52.941406 C 455.464844 54.8125 456.730469 57.492188 457.410156 59.726562 C 457.726562 60.765625 458.058594 61.617188 458.148438 61.617188 C 459.984375 57.730469 460.347656 52.8125 461.898438 49.050781 C 464.125 43.972656 463.671875 33.5625 461 28.308594 C 459.78125 25.664062 458.261719 23.128906 456.179688 21.039062 C 456.152344 21.039062 456.121094 21.035156 456.09375 21.039062 Z M 310.699219 22.375 C 310.296875 22.464844 309.023438 23.929688 307.964844 25.78125 C 306.898438 27.707031 305.839844 29.679688 304.980469 31.6875 C 304.925781 32.074219 304.726562 32.871094 304.535156 33.457031 C 303.609375 39.03125 303.515625 44.980469 305.710938 50.261719 C 306.046875 51.261719 306.742188 53.238281 307.261719 54.652344 C 307.78125 56.070312 308.269531 57.566406 308.339844 57.984375 C 308.460938 58.6875 308.792969 60.054688 308.929688 60.40625 C 308.960938 60.488281 309.089844 61.019531 309.222656 61.578125 L 309.457031 62.59375 L 309.820312 61.730469 C 310.015625 61.253906 310.347656 60.214844 310.566406 59.421875 C 311.308594 56.996094 313.5625 53.453125 315.007812 51.484375 C 316.328125 49.535156 317.582031 47.605469 317.800781 47.203125 C 319.140625 45.375 320.535156 43.589844 321.492188 41.519531 C 321.492188 41.371094 321.886719 40.417969 322.363281 39.398438 C 323.84375 36.242188 324.699219 32.546875 323.953125 32.546875 C 323.808594 32.546875 323.121094 33.296875 322.429688 34.210938 C 321.738281 35.128906 321.070312 35.878906 320.945312 35.878906 C 316.035156 39.578125 311.355469 44.632812 310.132812 50.820312 C 309.734375 53.1875 309.675781 51.601562 310.019531 47.992188 C 310.371094 44.253906 310.214844 41.238281 309.335938 35.035156 C 308.691406 30.46875 309.097656 26.226562 310.453125 23.507812 C 310.878906 22.660156 310.910156 22.328125 310.699219 22.375 Z M 465.433594 43.203125 C 465.285156 43.203125 465.203125 44.007812 465.101562 46.171875 C 464.730469 50.386719 463.625 54.332031 461.9375 58.191406 C 460.179688 61.867188 458.679688 65.703125 457.914062 69.71875 C 457.636719 71.621094 457.378906 70.917969 457.296875 68.023438 C 457.222656 65.242188 456.925781 63.988281 455.839844 61.824219 C 455.171875 60.394531 454.738281 58.878906 453.765625 57.585938 C 451.984375 55.132812 450.601562 52.328125 449.210938 49.65625 C 448.800781 48.824219 448.460938 47.972656 448.453125 47.761719 C 448.4375 47.105469 447.917969 47.355469 447.726562 48.113281 C 447.390625 49.449219 447.992188 53.980469 449.242188 59.496094 C 449.992188 62.824219 451.683594 68.804688 452.667969 71.609375 C 453.574219 74.1875 453.910156 76.910156 453.710938 80.015625 C 453.496094 83.339844 453.722656 83.84375 454.722656 82.285156 C 455.015625 81.828125 457.125 78.988281 459.402344 75.972656 C 461.675781 72.957031 463.832031 69.894531 464.191406 69.160156 C 467.953125 61.492188 468.574219 50.148438 465.601562 43.449219 C 465.53125 43.292969 465.480469 43.203125 465.433594 43.203125 Z M 301.839844 44.519531 C 301.1875 45.167969 299.984375 51.828125 299.984375 54.785156 C 299.980469 57.652344 300.5 61.855469 301.082031 63.71875 C 302.75 69.464844 305.429688 74.601562 309.734375 78.945312 C 311.015625 80.527344 312.355469 82.378906 312.71875 83.070312 C 313.855469 85.25 314.070312 84.746094 314.070312 79.863281 C 314.097656 76.667969 314.382812 73.6875 315.585938 70.703125 L 316.496094 67.523438 C 316.734375 66.691406 317.148438 65.191406 317.414062 64.191406 C 317.675781 63.191406 318.089844 61.679688 318.332031 60.832031 C 318.808594 58.941406 318.75 57 319.210938 55.105469 C 319.6875 53.148438 319.839844 47.6875 319.421875 47.6875 C 317.148438 50.203125 312.203125 62.113281 311.714844 62.980469 C 310.507812 66.269531 310.296875 67.480469 310.425781 70.65625 C 310.566406 74.140625 310.203125 74.46875 309.707031 71.308594 C 309.078125 67.308594 308.179688 64.335938 306.820312 61.777344 C 306.390625 60.976562 306.042969 60.199219 306.042969 60.054688 C 306.042969 59.914062 305.632812 58.9375 305.132812 57.878906 C 304.632812 56.820312 304.226562 55.855469 304.226562 55.730469 C 304.226562 55.605469 304.03125 55.074219 303.796875 54.546875 C 302.824219 52.363281 302.378906 50.394531 302.199219 47.460938 C 302.09375 45.75 301.933594 44.425781 301.839844 44.519531 Z M 449.050781 65.554688 C 447.78125 67.777344 447.433594 70.648438 446.644531 73.058594 C 446.207031 75.273438 445.113281 85.316406 445.113281 87.128906 C 445.113281 90.214844 443.335938 98.703125 442.308594 100.53125 C 441.421875 102.113281 441.21875 102.621094 441.363281 102.859375 C 444.617188 100.980469 447.804688 98.851562 450.871094 96.746094 C 451.824219 96.214844 452.636719 95.460938 453.597656 94.925781 C 454.226562 94.429688 454.816406 94.019531 454.902344 94.019531 C 459.96875 90.011719 464.3125 85.070312 466.417969 78.878906 C 467.636719 75.210938 468.28125 69.195312 467.636719 67.523438 C 467.375 66.839844 466.933594 67.523438 466.925781 68.621094 C 466.921875 69.578125 465.414062 73.429688 464.808594 74.03125 C 464.722656 74.117188 464.246094 74.789062 463.746094 75.527344 C 463.246094 76.269531 461.320312 78.449219 459.464844 80.375 C 457.613281 82.296875 455.582031 84.488281 454.960938 85.238281 C 453.832031 86.464844 452.847656 87.6875 451.988281 89.125 C 451.269531 90.070312 450.109375 91.828125 449.980469 91.992188 C 448.996094 93.257812 448.476562 94.046875 448.417969 94.085938 C 448.4375 94 448.789062 93.347656 449.476562 91.957031 C 450.242188 90.410156 450.789062 88.542969 451.183594 85.816406 C 451.570312 83.097656 451.394531 80.835938 450.414062 76 C 449.640625 72.1875 449.355469 69.90625 449.355469 67.710938 C 449.355469 66.472656 449.226562 65.554688 449.050781 65.554688 Z M 318.757812 67.75 C 318.574219 67.734375 318.464844 68.070312 318.464844 68.78125 C 318.460938 70.042969 317.507812 75.480469 316.910156 77.667969 C 316.691406 78.476562 316.535156 80.992188 316.53125 83.875 C 316.550781 87.050781 316.59375 90.34375 318.359375 93.121094 C 318.800781 93.785156 319.082031 94.414062 318.996094 94.5 C 317.527344 93.203125 316.925781 91.265625 315.605469 89.828125 C 315.113281 89.105469 313.886719 87.605469 312.878906 86.496094 C 310.734375 84.136719 305.898438 79.027344 304.90625 78.0625 C 304.527344 77.699219 304.222656 77.300781 304.222656 77.195312 C 304.222656 77.085938 303.835938 76.503906 303.363281 75.898438 C 302.230469 74.445312 300.847656 71.453125 300.730469 70.210938 C 300.679688 69.667969 300.488281 68.976562 300.3125 68.675781 C 299.8125 67.816406 299.902344 74.039062 300.425781 76.910156 C 300.984375 79.9375 301.425781 81.179688 303.070312 84.273438 C 304.613281 87.175781 307.214844 90.386719 309.527344 92.230469 C 310.441406 92.957031 311.191406 93.664062 311.191406 93.792969 C 314.347656 95.988281 317.53125 98.324219 320.6875 100.386719 C 320.882812 100.394531 322.199219 101.199219 323.613281 102.175781 C 327.058594 104.546875 327.078125 104.542969 325.925781 102.070312 C 325.527344 101.222656 324.992188 100.050781 324.742188 99.46875 C 323.84375 97.386719 322.878906 92.054688 322.546875 87.355469 C 322.066406 80.582031 320.84375 72.847656 319.722656 69.507812 C 319.34375 68.375 318.992188 67.769531 318.757812 67.75 Z M 443.296875 83.03125 C 443.261719 83.023438 443.230469 83.03125 443.191406 83.042969 C 442.960938 83.101562 442.613281 83.488281 442.128906 84.234375 C 441.613281 85.035156 440.847656 86.085938 440.425781 86.570312 C 438.453125 89.34375 436.636719 92.34375 435.417969 95.523438 C 435.417969 95.699219 435.28125 96.085938 435.113281 96.375 C 434.949219 96.664062 434.273438 98.53125 433.609375 100.53125 C 432.164062 104.894531 431.570312 106.574219 431.214844 107.277344 C 431.066406 107.566406 430.65625 108.410156 430.296875 109.160156 C 429.175781 111.496094 427.785156 113.488281 426.109375 115.160156 C 425.5625 115.707031 425.117188 116.21875 425.117188 116.296875 C 425.117188 116.542969 426.355469 116.4375 426.90625 116.144531 C 427.566406 115.789062 431.328125 114.929688 433.601562 114.609375 C 437.863281 114.015625 439.429688 113.613281 443.304688 112.140625 C 445.945312 111.136719 451.144531 107.554688 454.050781 104.730469 C 456.570312 102.285156 458.84375 99.128906 460.242188 96.128906 C 461.125 94.242188 462.472656 89.773438 462.230469 89.53125 C 462.167969 89.472656 461.839844 89.941406 461.492188 90.582031 C 460.496094 92.429688 460.210938 92.808594 458.445312 94.710938 C 456.871094 96.402344 453.988281 98.816406 452.992188 99.269531 C 452.742188 99.382812 452.128906 99.738281 451.628906 100.054688 C 451.128906 100.375 449.695312 101.132812 448.445312 101.742188 C 447.195312 102.347656 445.96875 102.964844 445.71875 103.113281 C 445.46875 103.261719 444.535156 103.738281 443.644531 104.171875 C 440.476562 105.933594 437.371094 107.839844 434.640625 110.21875 C 434.042969 110.800781 433.472656 111.28125 433.371094 111.28125 C 433.210938 111.28125 434.210938 110.058594 434.984375 109.320312 C 437.621094 106.195312 439.53125 102.589844 440.371094 98.5625 C 440.632812 97.3125 441.066406 94.859375 441.335938 93.109375 C 442.003906 88.785156 442.640625 85.914062 443.21875 84.546875 C 443.550781 83.761719 443.601562 83.300781 443.390625 83.089844 C 443.363281 83.0625 443.328125 83.039062 443.296875 83.03125 Z M 324.328125 84.027344 C 323.578125 84.0625 325.542969 88.273438 325.445312 89.324219 C 326.46875 93.964844 326.648438 94.957031 326.648438 95.863281 C 326.648438 97.953125 328.765625 104.917969 329.675781 105.828125 C 330.652344 107.6875 331.652344 109.300781 333.386719 110.496094 L 335.585938 112.59375 L 333.71875 111.347656 C 332.695312 110.660156 331.65625 109.878906 331.398438 109.625 C 328.5 107.882812 325.882812 105.585938 322.6875 104.285156 C 313.066406 99.851562 309.351562 97.070312 306.261719 91.964844 C 305.503906 90.714844 305.425781 90.648438 305.578125 91.445312 C 305.675781 91.945312 305.832031 92.757812 305.921875 93.253906 C 307.65625 98.347656 310.523438 102.796875 314.546875 106.433594 C 315.414062 107.183594 316.410156 108.054688 316.761719 108.367188 C 320.8125 111.589844 325.601562 113.8125 330.738281 114.628906 L 336.039062 115.539062 C 336.644531 115.648438 343.4375 117.523438 342.683594 116.429688 C 341.8125 116.429688 338.796875 112.40625 337.230469 109.160156 C 336.871094 108.410156 336.449219 107.566406 336.304688 107.277344 C 335.964844 106.613281 335.421875 105.097656 333.898438 100.585938 C 332.265625 95.742188 330.0625 91.242188 328.085938 88.71875 C 327.953125 88.554688 327.175781 87.546875 326.34375 86.484375 C 325.511719 85.425781 324.828125 84.4375 324.828125 84.289062 C 324.597656 84.105469 324.433594 84.019531 324.328125 84.027344 Z M 431.953125 100.5 C 431.464844 100.519531 429.0625 102.257812 427.429688 103.804688 C 426.515625 104.667969 425.246094 105.804688 424.605469 106.332031 C 423.964844 106.855469 421.417969 109.273438 418.945312 111.707031 C 414.808594 115.734375 410.375 119.238281 404.402344 120.0625 C 403.980469 120.0625 403.566406 120.1875 403.472656 120.335938 C 403.257812 120.6875 404.019531 120.96875 405.160156 120.96875 C 406.019531 120.96875 408.777344 121.542969 411.332031 122.246094 C 412 122.433594 413.089844 122.683594 413.757812 122.816406 C 414.421875 122.945312 416.261719 123.324219 417.847656 123.65625 C 423.441406 124.824219 429.320312 125.300781 434.8125 123.34375 C 439.570312 121.714844 443.84375 118.726562 447.066406 114.875 C 448.144531 113.738281 450.207031 110.234375 449.6875 110.417969 C 449.527344 110.476562 448.667969 111.203125 447.777344 112.035156 C 446.078125 113.625 445.402344 114.117188 444.28125 114.601562 C 443.910156 114.761719 443.023438 115.175781 442.3125 115.519531 C 440.3125 116.484375 436.382812 117.230469 430.421875 117.78125 C 425.597656 118.242188 420.753906 119.09375 415.953125 119.410156 C 418.601562 118.628906 421.058594 117.351562 423.261719 115.679688 C 424.304688 114.773438 426.96875 110.839844 427.882812 108.855469 C 428.152344 108.273438 428.753906 106.980469 429.226562 105.980469 C 429.699219 104.980469 430.101562 104.089844 430.109375 104.003906 C 430.113281 103.914062 430.578125 103.128906 431.140625 102.25 C 431.703125 101.375 432.097656 100.597656 432.019531 100.519531 C 432.003906 100.503906 431.988281 100.5 431.953125 100.5 Z M 335.746094 101.089844 C 335.472656 101.109375 335.664062 101.613281 336.285156 102.582031 C 337.554688 104.566406 337.714844 104.863281 339.457031 108.25 C 341.605469 112.425781 342.964844 114.488281 344.570312 116.019531 C 346.074219 117.453125 348.792969 118.976562 350.386719 119.277344 C 350.980469 119.386719 351.683594 119.816406 351.683594 119.816406 C 351.683594 119.816406 350.164062 119.792969 349.371094 119.605469 C 348.054688 119.347656 339.082031 118.457031 334.375 118.121094 C 328.378906 117.691406 323.351562 115.890625 320.097656 112.992188 C 318.289062 111.382812 317.636719 111.324219 318.769531 112.878906 C 319.164062 113.417969 319.769531 114.257812 320.113281 114.753906 C 322.917969 118.1875 326.667969 121.347656 330.757812 123.050781 C 331.15625 123.414062 332.789062 123.980469 335.28125 124.613281 C 337.992188 125.300781 342.78125 125.359375 347.082031 124.753906 C 348.878906 124.503906 350.476562 124.222656 350.621094 124.128906 C 350.769531 124.039062 351.535156 123.84375 352.324219 123.703125 C 353.117188 123.566406 354.789062 123.160156 356.039062 122.796875 C 357.289062 122.433594 359.730469 121.835938 361.472656 121.460938 L 364.636719 120.78125 L 363.140625 120.402344 C 362.316406 120.191406 361.195312 119.824219 360.648438 119.589844 C 358.042969 118.53125 355.273438 117.808594 353.007812 115.992188 C 352.425781 115.554688 350.714844 114.007812 349.210938 112.558594 C 345.199219 108.683594 341.246094 105.078125 339.175781 103.40625 C 337.214844 101.828125 336.097656 101.058594 335.746094 101.085938 Z M 393.125 120.289062 C 391.492188 120.316406 389.726562 120.46875 387.851562 120.800781 C 387.4375 120.871094 386.605469 121.035156 386.003906 121.234375 C 384.148438 121.847656 383.644531 121.867188 382.472656 121.347656 C 381.542969 120.9375 380.234375 120.574219 375.277344 120.5625 C 372.386719 120.613281 369.574219 120.730469 366.847656 121.699219 C 365.183594 122.027344 363.640625 122.816406 362.019531 123.296875 C 360.980469 123.722656 359.296875 124.390625 358.28125 124.773438 C 357.265625 125.15625 355.554688 125.882812 354.472656 126.390625 C 351.867188 127.625 348.304688 128.515625 345.042969 128.75 C 341.699219 128.984375 337.996094 128.285156 334.921875 126.835938 C 332.554688 125.722656 332.402344 125.675781 332.402344 126.097656 C 335.167969 129.398438 338.847656 131.535156 342.789062 133.121094 C 344.074219 133.800781 349.632812 134.640625 351.339844 134.40625 C 353.308594 134.140625 356.855469 133.410156 357.609375 133.121094 C 360.195312 132.117188 361.328125 131.570312 363.609375 130.226562 C 365.65625 128.984375 367.558594 127.578125 369.558594 126.289062 C 372.828125 123.792969 377.1875 122.332031 379.566406 122.929688 C 380.339844 123.121094 380.203125 123.234375 377.691406 124.519531 C 374.105469 126.347656 371.382812 128.148438 367.71875 131.105469 C 364.105469 134.023438 361.699219 136.304688 361.839844 136.6875 C 361.898438 136.839844 362.625 137.515625 363.460938 138.191406 C 364.292969 138.867188 365.125 139.425781 365.316406 139.433594 C 365.503906 139.4375 366.050781 138.929688 366.527344 138.304688 C 368.171875 136.148438 374.628906 130.097656 376.296875 129.144531 C 377.933594 128.167969 379.269531 126.757812 381.023438 125.957031 C 381.6875 125.628906 382.417969 125.191406 382.640625 124.980469 C 383.558594 124.125 386.378906 125.054688 389.0625 127.09375 C 389.480469 127.410156 390.363281 128.074219 391.03125 128.578125 C 393.054688 130.109375 394.582031 131.355469 396.003906 132.628906 C 397.714844 134.175781 399.09375 135.871094 400.832031 137.351562 C 401.988281 138.539062 402.816406 139.15625 403.179688 139.09375 C 403.917969 138.960938 406.328125 136.453125 406.152344 135.996094 C 405.832031 135.164062 401.027344 131.191406 397.242188 128.625 C 395.824219 127.667969 394.597656 126.800781 394.515625 126.703125 C 394.433594 126.609375 393.957031 126.3125 393.457031 126.050781 C 392.957031 125.789062 391.542969 125.035156 390.320312 124.375 L 388.097656 123.175781 L 389.070312 122.984375 C 391.875 122.425781 394.207031 123.152344 398.207031 125.835938 C 399.816406 126.957031 401.316406 128.191406 403.054688 129.097656 C 407.808594 132.242188 412.699219 133.746094 418.167969 133.746094 C 422.523438 133.746094 425.304688 132.96875 429.519531 130.585938 C 432.226562 129.050781 436.394531 125.476562 435.96875 125.046875 C 435.871094 124.953125 434.996094 125.3125 434.015625 125.84375 C 430.867188 127.550781 428.558594 128.035156 423.601562 128.03125 C 419.910156 127.996094 416.460938 127.425781 413.074219 125.863281 C 410.308594 124.503906 407.375 123.449219 404.515625 122.332031 C 403.425781 121.820312 402.253906 121.648438 401.105469 121.3125 C 399.34375 120.761719 396.839844 120.304688 393.816406 120.289062 C 393.585938 120.289062 393.355469 120.285156 393.125 120.289062 Z M 393.125 120.289062 " fill-opacity="1" fill-rule="nonzero"/></g><g clip-path="url(#7df37dadb8)"><path fill="#000000" d="M 423.5625 66.457031 C 421.867188 63.984375 410.199219 38.136719 410.03125 36.605469 C 413.726562 36.050781 416.085938 33.019531 416.097656 29.875 C 416.109375 27.375 413.699219 26.585938 412.671875 27.695312 C 411.984375 28.433594 412.417969 29.652344 413.113281 29.703125 C 413.117188 30.863281 412.527344 31.191406 411.648438 32.050781 C 410.792969 32.882812 407.832031 31.832031 406.738281 31.371094 C 405.003906 30.640625 403.421875 29.644531 401.34375 28.386719 L 401.34375 28.390625 C 398.894531 26.945312 397.804688 26.515625 396.605469 26.105469 L 396.605469 26.101562 C 392.113281 24.808594 390.15625 26.128906 388.820312 26.878906 L 388.847656 26.890625 L 388.808594 26.898438 C 387.789062 27.535156 387.332031 27.925781 386.425781 28.140625 C 386.425781 28.140625 386.054688 27.988281 386.054688 27.988281 C 385.785156 27.875 385.660156 26.070312 386.027344 25.273438 C 386.695312 23.8125 388.929688 23.585938 389.351562 20.996094 C 389.695312 18.941406 388.535156 17.46875 387.035156 16.078125 C 387.035156 16.078125 387.054688 16.070312 387.054688 16.070312 C 387.03125 16.082031 386.53125 15.578125 386.480469 15.53125 C 386.226562 15.28125 386.046875 14.96875 385.847656 14.675781 C 385.101562 13.59375 384.335938 13.859375 384.457031 13.851562 C 383.113281 13.96875 382.910156 15.210938 382.40625 15.65625 L 381.886719 16.140625 L 381.90625 16.148438 C 381.230469 16.777344 380.101562 17.75 379.722656 19.402344 C 379.277344 21.28125 380.050781 22.640625 381.53125 23.820312 C 382.554688 24.632812 383.453125 25.074219 383.15625 27.351562 C 383.03125 28.324219 382.757812 28.25 382.183594 28.03125 C 379.332031 26.945312 377.523438 22.617188 367.070312 28.738281 L 367.078125 28.746094 C 366.6875 28.980469 366.671875 28.980469 366.214844 29.277344 L 366.207031 29.316406 C 364.433594 30.277344 362.660156 31.449219 360.296875 32.054688 C 359.609375 32.226562 358.859375 32.511719 358.144531 32.351562 C 356.878906 32.074219 355.808594 30.609375 355.90625 29.710938 C 355.90625 29.726562 356.308594 29.515625 356.347656 29.476562 C 357.1875 28.671875 356.457031 26.875 354.738281 27.253906 C 351.035156 28.078125 353.167969 36.0625 358.992188 36.554688 C 358.898438 37.367188 351.207031 55.679688 345.539062 66.199219 C 345.359375 66.664062 345.113281 66.832031 345.261719 67.285156 C 345.46875 67.894531 346.414062 68.449219 347.019531 68.667969 C 347.109375 68.671875 347.105469 68.671875 347.105469 68.671875 C 348.039062 72.285156 350.789062 75.574219 353.214844 77.183594 C 356.585938 79.421875 361.582031 79.417969 363.753906 79.039062 C 367.808594 78.351562 373.421875 74.851562 374.992188 70.164062 C 375.207031 69.53125 375.210938 69.527344 375.472656 68.828125 C 376.519531 68.832031 377 67.644531 377.148438 67.4375 C 377.199219 66.738281 376.941406 66.273438 376.230469 66.054688 C 374.191406 61.511719 373.75 62.566406 369.316406 51.421875 C 364.261719 38.671875 365.726562 40.042969 363.558594 35.941406 C 363.734375 35.84375 363.910156 35.746094 364.085938 35.648438 C 364.0625 35.664062 364.054688 35.714844 364.054688 35.738281 C 364.875 35.292969 366.269531 33.730469 368.480469 32.5 L 368.472656 32.457031 C 369.644531 32.007812 369.800781 31.957031 370.109375 31.792969 C 371.636719 31.574219 376.042969 30.511719 379.796875 36.542969 L 379.792969 36.59375 C 380.113281 37.230469 381.09375 39.703125 381.246094 40.289062 C 379.636719 40.472656 379.574219 41.996094 379.480469 43.535156 L 379.523438 43.511719 C 379.527344 43.964844 379.59375 44.375 379.691406 44.804688 L 379.640625 44.816406 C 379.757812 45.042969 379.722656 44.949219 379.789062 45.230469 L 379.84375 45.214844 C 380.128906 45.777344 380.535156 46.335938 380.964844 46.835938 L 381.09375 47.277344 C 381.363281 48.191406 380.242188 48.769531 380.097656 50.421875 C 379.945312 52.132812 380.746094 52.828125 380.679688 53.730469 C 380.585938 54.945312 380.078125 55.289062 380.570312 56.703125 L 380.558594 56.722656 C 380.699219 56.996094 380.796875 57.292969 380.910156 57.578125 C 381.042969 57.921875 381.273438 58.109375 381.277344 58.519531 C 381.277344 58.84375 381.140625 59.148438 381.050781 59.453125 C 379.699219 63.921875 383.027344 65.441406 376.945312 76.664062 L 376.9375 76.65625 C 375.742188 78.917969 375.042969 79.769531 376.007812 82.878906 C 376.878906 85.6875 375.890625 85.664062 373.105469 88.074219 L 373.132812 88.09375 C 372.957031 88.265625 368.5 93.210938 368.363281 93.363281 C 368.1875 93.554688 369.140625 94.347656 369.277344 94.433594 C 370.121094 94.972656 370.621094 94.941406 373.199219 95.863281 C 382.238281 99.09375 391.988281 98.15625 399.453125 94.65625 C 400.152344 94.3125 400.65625 93.878906 400.613281 93.117188 C 400.613281 93.113281 400.007812 92.625 399.945312 92.5625 C 399.921875 92.539062 397.90625 90.273438 397.90625 90.242188 C 395.828125 87.851562 396.089844 88.257812 395.164062 87.414062 L 395.152344 87.425781 C 391.925781 84.875 392.441406 85.199219 393.417969 81.328125 L 393.371094 81.351562 C 393.632812 79.640625 393.175781 78.847656 392.527344 77.429688 L 392.5 77.453125 C 392.109375 76.71875 391.96875 76.546875 391.546875 75.640625 L 391.539062 75.640625 C 389.464844 71.273438 388.945312 69.761719 388.375 67.28125 C 388.375 67.28125 388.308594 66.683594 388.28125 66.375 L 388.269531 66.375 C 388.210938 65.328125 388.226562 64.839844 388.285156 63.9375 L 388.269531 63.929688 C 388.335938 62.253906 388.371094 61.363281 388.109375 60 L 388.113281 60 C 388.09375 59.933594 388.105469 59.996094 388.039062 59.640625 L 388.015625 59.652344 C 387.867188 59.105469 387.703125 58.640625 387.804688 58.1875 C 387.875 57.871094 388.058594 57.261719 388.339844 57.0625 C 388.710938 56.207031 388.734375 55.390625 388.496094 54.5 C 387.964844 52.542969 389.921875 51.507812 388.261719 48.566406 C 387.773438 47.707031 387.851562 47.703125 387.980469 46.835938 C 388.09375 46.746094 388.167969 46.695312 388.253906 46.558594 L 388.253906 46.574219 L 388.984375 45.554688 C 389.605469 44.6875 390.132812 40.695312 387.808594 40.285156 L 387.753906 40.34375 L 387.738281 40.332031 C 387.957031 39.652344 388.882812 37.324219 388.972656 37.101562 L 388.964844 37.082031 C 390.863281 33.4375 393.679688 31.773438 396.230469 31.597656 C 396.871094 31.554688 396.917969 31.535156 398.242188 31.6875 L 398.238281 31.652344 L 398.261719 31.699219 C 399.695312 32.042969 400.144531 32.285156 401.433594 32.996094 L 401.429688 33.027344 C 402.167969 33.511719 402.011719 33.402344 404.625 35.507812 L 404.570312 35.402344 C 404.863281 35.601562 405.164062 35.777344 405.480469 35.933594 C 403.269531 39.667969 404.382812 40.40625 398.894531 53.386719 C 394.519531 63.78125 394.949219 61.273438 392.773438 66.058594 C 392.066406 66.277344 391.8125 66.738281 391.863281 67.398438 C 391.992188 67.613281 392.460938 68.820312 393.542969 68.824219 C 394.65625 71.824219 394.035156 70.894531 395.074219 72.410156 C 397.132812 75.414062 400.324219 77.664062 403.542969 78.632812 C 407.496094 79.820312 412.5 79.105469 414.867188 77.71875 C 418.125 75.816406 420.835938 72.644531 421.917969 68.667969 C 422.398438 68.605469 423.695312 67.851562 423.78125 67.140625 C 423.800781 66.972656 423.777344 66.722656 423.5625 66.457031 Z M 365.988281 47.417969 C 368.113281 54.09375 373.21875 65.15625 373.8125 65.972656 C 372.585938 66.058594 372.539062 66.09375 369.609375 66 C 359.9375 65.683594 366.773438 66.457031 348.183594 65.84375 C 348.875 63.519531 350.320312 61.683594 351.371094 59.464844 C 352.6875 56.703125 353.835938 53.847656 355.09375 51.082031 C 357.378906 46.007812 359.328125 41.921875 360.558594 36.691406 C 360.984375 36.683594 361.390625 36.660156 361.929688 36.542969 C 362.792969 37.59375 365.566406 46.121094 365.988281 47.417969 Z M 370.535156 29.800781 C 370.582031 29.742188 370.621094 29.679688 370.648438 29.617188 C 370.648438 29.671875 370.605469 29.746094 370.535156 29.800781 Z M 378.171875 32.8125 C 378.164062 32.800781 378.160156 32.789062 378.15625 32.773438 C 378.164062 32.769531 378.179688 32.769531 378.195312 32.769531 C 378.191406 32.78125 378.183594 32.800781 378.171875 32.8125 Z M 382.71875 34.59375 C 382.707031 34.578125 382.703125 34.5625 382.699219 34.550781 C 382.71875 34.546875 382.722656 34.546875 382.726562 34.550781 C 382.726562 34.566406 382.722656 34.582031 382.71875 34.59375 Z M 391.820312 31.945312 C 391.820312 31.933594 391.820312 31.921875 391.820312 31.914062 C 391.84375 31.917969 391.863281 31.929688 391.878906 31.941406 Z M 413.378906 66.066406 C 409.5625 66.277344 405.722656 65.898438 403.253906 65.921875 C 399.816406 65.898438 398.070312 66.179688 395.207031 65.96875 C 395.332031 65.851562 395.246094 65.921875 395.402344 65.792969 C 395.640625 65.175781 395.578125 65.007812 396.324219 63.625 C 397.441406 61.660156 401.109375 53.0625 402.570312 48.792969 C 406.585938 37.039062 406.175781 37.675781 407.101562 36.5 C 407.542969 36.597656 407.996094 36.660156 408.449219 36.683594 C 409.8125 42.453125 411.625 45.859375 416.304688 56.523438 C 419.171875 62.976562 420.050781 63.171875 420.835938 65.875 C 420.835938 65.875 418.046875 65.863281 413.378906 66.066406 Z M 413.378906 66.066406 " fill-opacity="1" fill-rule="nonzero"/></g><g fill="#000000" fill-opacity="1"><g transform="translate(46.452798, 98.939804)"><g><path d="M 42.304688 -55.292969 C 50.71875 -53.660156 52.433594 -47.777344 52.921875 -27.195312 L 53.332031 -10.289062 L 18.785156 -51.125 C 17.152344 -53.085938 15.84375 -54.964844 15.027344 -56.925781 L 2.859375 -56.925781 L 2.859375 -55.292969 C 7.921875 -54.066406 8.332031 -52.1875 8.25 -47.695312 L 8.003906 -23.359375 C 7.839844 -5.71875 6.125 -2.53125 2.042969 -1.632812 L 2.042969 0 L 21.886719 0 L 21.886719 -1.632812 C 14.457031 -2.941406 11.597656 -8.332031 11.1875 -22.050781 C 10.945312 -29.890625 10.617188 -37.976562 10.617188 -48.511719 L 46.554688 -6.207031 C 49.167969 -3.183594 51.046875 -1.0625 52.105469 0.652344 L 55.945312 0.652344 C 55.78125 -1.960938 55.617188 -5.960938 55.699219 -11.1875 L 55.863281 -27.113281 C 56.109375 -50.71875 56.597656 -53.660156 61.824219 -55.292969 L 61.824219 -56.925781 L 42.304688 -56.925781 Z M 42.304688 -55.292969 "/></g></g></g><g fill="#000000" fill-opacity="1"><g transform="translate(111.118742, 98.939804)"><g><path d="M 33.402344 -55.292969 C 40.835938 -54.148438 42.714844 -50.308594 34.957031 -36.914062 L 29.730469 -27.851562 L 18.785156 -46.878906 C 16.335938 -51.207031 17.152344 -53.660156 20.90625 -55.292969 L 20.90625 -56.925781 L 0.652344 -56.925781 L 0.652344 -55.292969 C 5.144531 -53.660156 7.269531 -51.941406 11.433594 -44.917969 L 23.277344 -25.074219 L 23.277344 -13.722656 C 23.277344 -6.453125 23.277344 -3.347656 16.824219 -1.714844 L 16.824219 -0.0820312 L 37.242188 -0.0820312 L 37.242188 -1.714844 C 30.789062 -3.347656 30.628906 -6.289062 30.628906 -13.722656 L 30.628906 -25.316406 L 36.015625 -33.648438 C 45.734375 -48.675781 48.1875 -54.394531 52.515625 -55.292969 L 52.515625 -56.925781 L 33.402344 -56.925781 Z M 33.402344 -55.292969 "/></g></g></g><g fill="#000000" fill-opacity="1"><g transform="translate(165.088739, 98.939804)"><g><path d="M 30.054688 -57.253906 L 25.972656 -57.253906 L 14.375 -26.214844 C 6.535156 -5.226562 3.839844 -2.53125 -0.328125 -1.632812 L -0.328125 0 L 19.03125 0 L 19.03125 -1.632812 C 11.105469 -3.023438 12.578125 -10.289062 17.3125 -25.074219 L 34.464844 -24.992188 L 38.792969 -13.3125 C 41 -7.515625 40.753906 -2.859375 35.28125 -1.632812 L 35.28125 0 L 55.535156 0 L 55.535156 -1.632812 C 51.046875 -3.105469 50.066406 -4.328125 46.554688 -13.640625 Z M 25.316406 -49.410156 L 33.566406 -27.359375 L 18.132812 -27.359375 Z M 25.316406 -49.410156 "/></g></g></g><g fill="#000000" fill-opacity="1"><g transform="translate(221.671492, 98.939804)"><g><path d="M 33.402344 -55.292969 C 40.835938 -54.148438 42.714844 -50.308594 34.957031 -36.914062 L 29.730469 -27.851562 L 18.785156 -46.878906 C 16.335938 -51.207031 17.152344 -53.660156 20.90625 -55.292969 L 20.90625 -56.925781 L 0.652344 -56.925781 L 0.652344 -55.292969 C 5.144531 -53.660156 7.269531 -51.941406 11.433594 -44.917969 L 23.277344 -25.074219 L 23.277344 -13.722656 C 23.277344 -6.453125 23.277344 -3.347656 16.824219 -1.714844 L 16.824219 -0.0820312 L 37.242188 -0.0820312 L 37.242188 -1.714844 C 30.789062 -3.347656 30.628906 -6.289062 30.628906 -13.722656 L 30.628906 -25.316406 L 36.015625 -33.648438 C 45.734375 -48.675781 48.1875 -54.394531 52.515625 -55.292969 L 52.515625 -56.925781 L 33.402344 -56.925781 Z M 33.402344 -55.292969 "/></g></g></g><g fill="#000000" fill-opacity="1"><g transform="translate(493.684849, 98.939804)"><g><path d="M 18.375 1.144531 C 32.097656 1.144531 40.347656 -6.453125 40.347656 -16.660156 C 40.347656 -24.257812 36.261719 -28.503906 27.851562 -31.445312 C 18.050781 -34.792969 9.800781 -37.894531 9.800781 -45.65625 C 9.800781 -51.289062 14.621094 -54.964844 20.988281 -54.964844 C 28.992188 -54.964844 33.976562 -50.066406 36.996094 -40.753906 L 38.550781 -41 L 37.160156 -56.273438 C 32.914062 -57.332031 28.667969 -57.90625 23.847656 -57.90625 C 12.578125 -57.90625 4.574219 -50.882812 4.574219 -41.898438 C 4.574219 -33.730469 9.71875 -29.074219 19.519531 -25.644531 C 28.175781 -22.625 34.382812 -20.746094 34.382812 -12.003906 C 34.382812 -5.796875 28.75 -1.632812 22.050781 -1.632812 C 13.3125 -1.632812 6.941406 -6.617188 4.082031 -17.476562 L 2.449219 -17.234375 L 3.675781 -0.816406 C 8.574219 0.570312 13.3125 1.144531 18.375 1.144531 Z M 18.375 1.144531 "/></g></g></g><g fill="#000000" fill-opacity="1"><g transform="translate(537.693729, 98.939804)"><g><path d="M 30.054688 -57.253906 L 25.972656 -57.253906 L 14.375 -26.214844 C 6.535156 -5.226562 3.839844 -2.53125 -0.328125 -1.632812 L -0.328125 0 L 19.03125 0 L 19.03125 -1.632812 C 11.105469 -3.023438 12.578125 -10.289062 17.3125 -25.074219 L 34.464844 -24.992188 L 38.792969 -13.3125 C 41 -7.515625 40.753906 -2.859375 35.28125 -1.632812 L 35.28125 0 L 55.535156 0 L 55.535156 -1.632812 C 51.046875 -3.105469 50.066406 -4.328125 46.554688 -13.640625 Z M 25.316406 -49.410156 L 33.566406 -27.359375 L 18.132812 -27.359375 Z M 25.316406 -49.410156 "/></g></g></g><g fill="#000000" fill-opacity="1"><g transform="translate(594.276477, 98.939804)"><g><path d="M 46.796875 -57.578125 C 45.410156 -57.253906 43.121094 -56.925781 40.917969 -56.925781 L 7.757812 -56.925781 C 5.554688 -56.925781 3.265625 -57.253906 1.878906 -57.578125 L 0.816406 -42.386719 L 2.449219 -42.222656 C 4.65625 -50.308594 8.085938 -54.636719 17.234375 -54.636719 L 20.582031 -54.636719 L 20.582031 -13.640625 C 20.582031 -6.371094 20.582031 -3.265625 14.128906 -1.632812 L 14.128906 0 L 34.546875 0 L 34.546875 -1.632812 C 28.09375 -3.265625 27.933594 -6.207031 27.933594 -13.640625 L 27.933594 -54.636719 L 31.445312 -54.636719 C 40.589844 -54.636719 44.019531 -50.308594 46.226562 -42.222656 L 47.859375 -42.386719 Z M 46.796875 -57.578125 "/></g></g></g><g fill="#000000" fill-opacity="1"><g transform="translate(643.755811, 98.939804)"><g><path d="M 54.882812 -43.285156 C 54.882812 -50.554688 54.882812 -53.660156 61.335938 -55.292969 L 61.335938 -56.925781 L 40.917969 -56.925781 L 40.917969 -55.292969 C 47.371094 -53.660156 47.53125 -50.71875 47.53125 -43.285156 L 47.53125 -31.445312 L 16.824219 -31.445312 L 16.824219 -43.285156 C 16.824219 -50.554688 16.824219 -53.660156 23.277344 -55.292969 L 23.277344 -56.925781 L 2.859375 -56.925781 L 2.859375 -55.292969 C 9.3125 -53.660156 9.472656 -50.71875 9.472656 -43.285156 L 9.472656 -13.640625 C 9.472656 -6.371094 9.472656 -3.265625 3.023438 -1.632812 L 3.023438 0 L 23.441406 0 L 23.441406 -1.632812 C 16.988281 -3.265625 16.824219 -6.207031 16.824219 -13.640625 L 16.824219 -29.15625 L 47.53125 -29.15625 L 47.53125 -13.640625 C 47.53125 -6.371094 47.53125 -3.265625 41.082031 -1.632812 L 41.082031 0 L 61.5 0 L 61.5 -1.632812 C 55.046875 -3.265625 54.882812 -6.207031 54.882812 -13.640625 Z M 54.882812 -43.285156 "/></g></g></g><g fill="#000000" fill-opacity="1"><g transform="translate(708.911639, 98.939804)"><g><path d="M 9.636719 -13.640625 C 9.636719 -6.371094 9.636719 -3.265625 3.183594 -1.632812 L 3.183594 0 L 23.601562 0 L 23.601562 -1.632812 C 17.152344 -3.265625 16.988281 -6.207031 16.988281 -13.640625 L 16.988281 -43.285156 C 16.988281 -50.554688 16.988281 -53.660156 23.441406 -55.292969 L 23.441406 -56.925781 L 3.023438 -56.925781 L 3.023438 -55.292969 C 9.472656 -53.660156 9.636719 -50.71875 9.636719 -43.285156 Z M 9.636719 -13.640625 "/></g></g></g><g fill="#000000" fill-opacity="1"><g transform="translate(64.978401, 186.880907)"><g><path d="M 10.515625 -11.203125 L 17.96875 -23.28125 L 20.65625 -23.28125 L 11.703125 -8.984375 L 11.703125 0 L 9.21875 0 L 9.21875 -8.984375 L 0.265625 -23.28125 L 3.0625 -23.28125 Z M 10.515625 -11.203125 "/></g></g></g><g fill="#000000" fill-opacity="1"><g transform="translate(95.517435, 186.880907)"><g><path d="M 13.96875 0.40625 C 11.6875 0.40625 9.613281 -0.125 7.75 -1.1875 C 5.882812 -2.257812 4.425781 -3.707031 3.375 -5.53125 C 2.320312 -7.363281 1.796875 -9.398438 1.796875 -11.640625 C 1.796875 -13.878906 2.320312 -15.910156 3.375 -17.734375 C 4.425781 -19.566406 5.882812 -21.015625 7.75 -22.078125 C 9.613281 -23.148438 11.6875 -23.6875 13.96875 -23.6875 C 16.25 -23.6875 18.320312 -23.148438 20.1875 -22.078125 C 22.050781 -21.015625 23.507812 -19.566406 24.5625 -17.734375 C 25.613281 -15.910156 26.140625 -13.878906 26.140625 -11.640625 C 26.140625 -9.398438 25.613281 -7.363281 24.5625 -5.53125 C 23.507812 -3.707031 22.050781 -2.257812 20.1875 -1.1875 C 18.320312 -0.125 16.25 0.40625 13.96875 0.40625 Z M 13.96875 -1.921875 C 15.789062 -1.921875 17.4375 -2.34375 18.90625 -3.1875 C 20.382812 -4.03125 21.546875 -5.195312 22.390625 -6.6875 C 23.234375 -8.175781 23.65625 -9.828125 23.65625 -11.640625 C 23.65625 -13.460938 23.234375 -15.113281 22.390625 -16.59375 C 21.546875 -18.082031 20.382812 -19.25 18.90625 -20.09375 C 17.4375 -20.9375 15.789062 -21.359375 13.96875 -21.359375 C 12.15625 -21.359375 10.507812 -20.9375 9.03125 -20.09375 C 7.550781 -19.25 6.390625 -18.082031 5.546875 -16.59375 C 4.710938 -15.113281 4.296875 -13.460938 4.296875 -11.640625 C 4.296875 -9.828125 4.710938 -8.175781 5.546875 -6.6875 C 6.390625 -5.195312 7.550781 -4.03125 9.03125 -3.1875 C 10.507812 -2.34375 12.15625 -1.921875 13.96875 -1.921875 Z M 13.96875 -1.921875 "/></g></g></g><g fill="#000000" fill-opacity="1"><g transform="translate(133.07455, 186.880907)"><g><path d="M 12.96875 0.40625 C 11.019531 0.40625 9.3125 0.00390625 7.84375 -0.796875 C 6.382812 -1.597656 5.257812 -2.707031 4.46875 -4.125 C 3.6875 -5.539062 3.296875 -7.148438 3.296875 -8.953125 L 3.296875 -23.28125 L 5.78125 -23.28125 L 5.78125 -8.953125 C 5.78125 -6.796875 6.421875 -5.082031 7.703125 -3.8125 C 8.992188 -2.550781 10.75 -1.921875 12.96875 -1.921875 C 15.1875 -1.921875 16.9375 -2.550781 18.21875 -3.8125 C 19.507812 -5.082031 20.15625 -6.796875 20.15625 -8.953125 L 20.15625 -23.28125 L 22.65625 -23.28125 L 22.65625 -8.953125 C 22.65625 -7.148438 22.257812 -5.539062 21.46875 -4.125 C 20.6875 -2.707031 19.5625 -1.597656 18.09375 -0.796875 C 16.632812 0.00390625 14.925781 0.40625 12.96875 0.40625 Z M 12.96875 0.40625 "/></g></g></g><g fill="#000000" fill-opacity="1"><g transform="translate(168.636012, 186.880907)"><g><path d="M 18.921875 0 L 12.515625 -9.640625 L 5.953125 -9.640625 L 5.953125 0 L 3.453125 0 L 3.453125 -23.28125 L 13.546875 -23.28125 C 15.097656 -23.28125 16.457031 -22.976562 17.625 -22.375 C 18.800781 -21.78125 19.707031 -20.96875 20.34375 -19.9375 C 20.976562 -18.90625 21.296875 -17.75 21.296875 -16.46875 C 21.296875 -14.757812 20.757812 -13.300781 19.6875 -12.09375 C 18.625 -10.882812 17.171875 -10.125 15.328125 -9.8125 L 21.890625 0 Z M 5.953125 -20.953125 L 5.953125 -11.96875 L 13.40625 -11.96875 C 15.132812 -11.96875 16.460938 -12.375 17.390625 -13.1875 C 18.328125 -14 18.796875 -15.09375 18.796875 -16.46875 C 18.796875 -17.84375 18.328125 -18.929688 17.390625 -19.734375 C 16.460938 -20.546875 15.132812 -20.953125 13.40625 -20.953125 Z M 5.953125 -20.953125 "/></g></g></g><g fill="#000000" fill-opacity="1"><g transform="translate(201.902457, 186.880907)"><g/></g></g><g fill="#000000" fill-opacity="1"><g transform="translate(220.833362, 186.880907)"><g><path d="M 19.890625 0 L 3.453125 0 L 3.453125 -23.28125 L 5.953125 -23.28125 L 5.953125 -2.328125 L 19.890625 -2.328125 Z M 19.890625 0 "/></g></g></g><g fill="#000000" fill-opacity="1"><g transform="translate(251.006526, 186.880907)"><g><path d="M 5.953125 -10.8125 L 5.953125 -2.328125 L 20.59375 -2.328125 L 20.59375 0 L 3.453125 0 L 3.453125 -23.28125 L 20.265625 -23.28125 L 20.265625 -20.953125 L 5.953125 -20.953125 L 5.953125 -13.140625 L 18.765625 -13.140625 L 18.765625 -10.8125 Z M 5.953125 -10.8125 "/></g></g></g><g fill="#000000" fill-opacity="1"><g transform="translate(283.208617, 186.880907)"><g><path d="M 14.53125 -11.375 L 25.25 -11.375 L 25.25 0 L 23.578125 0 L 22.984375 -3.71875 C 22.140625 -2.550781 20.941406 -1.570312 19.390625 -0.78125 C 17.835938 0.0078125 15.988281 0.40625 13.84375 0.40625 C 11.644531 0.40625 9.625 -0.125 7.78125 -1.1875 C 5.9375 -2.257812 4.476562 -3.710938 3.40625 -5.546875 C 2.332031 -7.390625 1.796875 -9.421875 1.796875 -11.640625 C 1.796875 -13.859375 2.332031 -15.882812 3.40625 -17.71875 C 4.476562 -19.5625 5.945312 -21.015625 7.8125 -22.078125 C 9.675781 -23.148438 11.726562 -23.6875 13.96875 -23.6875 C 15.832031 -23.6875 17.519531 -23.335938 19.03125 -22.640625 C 20.539062 -21.941406 21.78125 -21.015625 22.75 -19.859375 C 23.726562 -18.703125 24.414062 -17.472656 24.8125 -16.171875 L 22.328125 -16.171875 C 20.773438 -19.628906 17.988281 -21.359375 13.96875 -21.359375 C 12.15625 -21.359375 10.507812 -20.945312 9.03125 -20.125 C 7.550781 -19.300781 6.390625 -18.148438 5.546875 -16.671875 C 4.710938 -15.203125 4.296875 -13.523438 4.296875 -11.640625 C 4.296875 -9.753906 4.710938 -8.070312 5.546875 -6.59375 C 6.390625 -5.125 7.550781 -3.976562 9.03125 -3.15625 C 10.507812 -2.332031 12.15625 -1.921875 13.96875 -1.921875 C 15.632812 -1.921875 17.113281 -2.210938 18.40625 -2.796875 C 19.707031 -3.390625 20.738281 -4.226562 21.5 -5.3125 C 22.269531 -6.40625 22.695312 -7.671875 22.78125 -9.109375 L 14.53125 -9.109375 Z M 14.53125 -11.375 "/></g></g></g><g fill="#000000" fill-opacity="1"><g transform="translate(320.732498, 186.880907)"><g><path d="M 23.25 0 L 20.5625 0 L 18.03125 -5.828125 L 5.5625 -5.828125 L 3.03125 0 L 0.4375 0 L 10.578125 -23.28125 L 13.109375 -23.28125 Z M 17.03125 -8.15625 L 11.8125 -20.296875 L 6.546875 -8.15625 Z M 17.03125 -8.15625 "/></g></g></g><g fill="#000000" fill-opacity="1"><g transform="translate(354.032201, 186.880907)"><g><path d="M 19.890625 0 L 3.453125 0 L 3.453125 -23.28125 L 5.953125 -23.28125 L 5.953125 -2.328125 L 19.890625 -2.328125 Z M 19.890625 0 "/></g></g></g><g fill="#000000" fill-opacity="1"><g transform="translate(384.205379, 186.880907)"><g/></g></g><g fill="#000000" fill-opacity="1"><g transform="translate(403.136297, 186.880907)"><g><path d="M 13.96875 0.40625 C 11.6875 0.40625 9.613281 -0.125 7.75 -1.1875 C 5.882812 -2.257812 4.425781 -3.707031 3.375 -5.53125 C 2.320312 -7.363281 1.796875 -9.398438 1.796875 -11.640625 C 1.796875 -13.878906 2.320312 -15.910156 3.375 -17.734375 C 4.425781 -19.566406 5.882812 -21.015625 7.75 -22.078125 C 9.613281 -23.148438 11.6875 -23.6875 13.96875 -23.6875 C 15.8125 -23.6875 17.492188 -23.3125 19.015625 -22.5625 C 20.535156 -21.820312 21.8125 -20.832031 22.84375 -19.59375 C 23.875 -18.351562 24.585938 -16.988281 24.984375 -15.5 L 22.484375 -15.5 C 21.816406 -17.226562 20.769531 -18.632812 19.34375 -19.71875 C 17.914062 -20.8125 16.125 -21.359375 13.96875 -21.359375 C 12.15625 -21.359375 10.507812 -20.9375 9.03125 -20.09375 C 7.550781 -19.25 6.390625 -18.082031 5.546875 -16.59375 C 4.710938 -15.113281 4.296875 -13.460938 4.296875 -11.640625 C 4.296875 -9.828125 4.710938 -8.175781 5.546875 -6.6875 C 6.390625 -5.195312 7.550781 -4.03125 9.03125 -3.1875 C 10.507812 -2.34375 12.15625 -1.921875 13.96875 -1.921875 C 16.226562 -1.921875 18.082031 -2.457031 19.53125 -3.53125 C 20.988281 -4.613281 22.03125 -6.03125 22.65625 -7.78125 L 25.15625 -7.78125 C 24.726562 -6.269531 24.003906 -4.894531 22.984375 -3.65625 C 21.960938 -2.414062 20.679688 -1.425781 19.140625 -0.6875 C 17.597656 0.0390625 15.875 0.40625 13.96875 0.40625 Z M 13.96875 0.40625 "/></g></g></g><g fill="#000000" fill-opacity="1"><g transform="translate(439.529282, 186.880907)"><g><path d="M 13.96875 0.40625 C 11.6875 0.40625 9.613281 -0.125 7.75 -1.1875 C 5.882812 -2.257812 4.425781 -3.707031 3.375 -5.53125 C 2.320312 -7.363281 1.796875 -9.398438 1.796875 -11.640625 C 1.796875 -13.878906 2.320312 -15.910156 3.375 -17.734375 C 4.425781 -19.566406 5.882812 -21.015625 7.75 -22.078125 C 9.613281 -23.148438 11.6875 -23.6875 13.96875 -23.6875 C 16.25 -23.6875 18.320312 -23.148438 20.1875 -22.078125 C 22.050781 -21.015625 23.507812 -19.566406 24.5625 -17.734375 C 25.613281 -15.910156 26.140625 -13.878906 26.140625 -11.640625 C 26.140625 -9.398438 25.613281 -7.363281 24.5625 -5.53125 C 23.507812 -3.707031 22.050781 -2.257812 20.1875 -1.1875 C 18.320312 -0.125 16.25 0.40625 13.96875 0.40625 Z M 13.96875 -1.921875 C 15.789062 -1.921875 17.4375 -2.34375 18.90625 -3.1875 C 20.382812 -4.03125 21.546875 -5.195312 22.390625 -6.6875 C 23.234375 -8.175781 23.65625 -9.828125 23.65625 -11.640625 C 23.65625 -13.460938 23.234375 -15.113281 22.390625 -16.59375 C 21.546875 -18.082031 20.382812 -19.25 18.90625 -20.09375 C 17.4375 -20.9375 15.789062 -21.359375 13.96875 -21.359375 C 12.15625 -21.359375 10.507812 -20.9375 9.03125 -20.09375 C 7.550781 -19.25 6.390625 -18.082031 5.546875 -16.59375 C 4.710938 -15.113281 4.296875 -13.460938 4.296875 -11.640625 C 4.296875 -9.828125 4.710938 -8.175781 5.546875 -6.6875 C 6.390625 -5.195312 7.550781 -4.03125 9.03125 -3.1875 C 10.507812 -2.34375 12.15625 -1.921875 13.96875 -1.921875 Z M 13.96875 -1.921875 "/></g></g></g><g fill="#000000" fill-opacity="1"><g transform="translate(477.086408, 186.880907)"><g><path d="M 15.875 -3.625 L 26.25 -23.28125 L 28.25 -23.28125 L 28.25 0 L 25.75 0 L 25.75 -17.234375 L 16.53125 0 L 15.109375 0 L 5.953125 -17.234375 L 5.953125 0 L 3.453125 0 L 3.453125 -23.28125 L 5.484375 -23.28125 Z M 15.875 -3.625 "/></g></g></g><g fill="#000000" fill-opacity="1"><g transform="translate(518.402033, 186.880907)"><g><path d="M 12.703125 -23.28125 C 14.328125 -23.28125 15.75 -22.960938 16.96875 -22.328125 C 18.1875 -21.703125 19.128906 -20.832031 19.796875 -19.71875 C 20.460938 -18.613281 20.796875 -17.375 20.796875 -16 C 20.796875 -14.625 20.460938 -13.378906 19.796875 -12.265625 C 19.128906 -11.160156 18.1875 -10.289062 16.96875 -9.65625 C 15.75 -9.03125 14.328125 -8.71875 12.703125 -8.71875 L 5.953125 -8.71875 L 5.953125 0 L 3.453125 0 L 3.453125 -23.28125 Z M 12.609375 -11.046875 C 14.378906 -11.046875 15.769531 -11.5 16.78125 -12.40625 C 17.789062 -13.3125 18.296875 -14.507812 18.296875 -16 C 18.296875 -17.488281 17.789062 -18.6875 16.78125 -19.59375 C 15.769531 -20.5 14.378906 -20.953125 12.609375 -20.953125 L 5.953125 -20.953125 L 5.953125 -11.046875 Z M 12.609375 -11.046875 "/></g></g></g><g fill="#000000" fill-opacity="1"><g transform="translate(550.57084, 186.880907)"><g><path d="M 23.25 0 L 20.5625 0 L 18.03125 -5.828125 L 5.5625 -5.828125 L 3.03125 0 L 0.4375 0 L 10.578125 -23.28125 L 13.109375 -23.28125 Z M 17.03125 -8.15625 L 11.8125 -20.296875 L 6.546875 -8.15625 Z M 17.03125 -8.15625 "/></g></g></g><g fill="#000000" fill-opacity="1"><g transform="translate(583.870516, 186.880907)"><g><path d="M 20.75 -4.0625 L 20.75 -23.28125 L 23.25 -23.28125 L 23.25 0 L 20.890625 0 L 5.953125 -19.234375 L 5.953125 0 L 3.453125 0 L 3.453125 -23.28125 L 5.828125 -23.28125 Z M 20.75 -4.0625 "/></g></g></g><g fill="#000000" fill-opacity="1"><g transform="translate(620.19696, 186.880907)"><g><path d="M 5.953125 0 L 3.453125 0 L 3.453125 -23.28125 L 5.953125 -23.28125 Z M 5.953125 0 "/></g></g></g><g fill="#000000" fill-opacity="1"><g transform="translate(639.227663, 186.880907)"><g><path d="M 13.96875 0.40625 C 11.6875 0.40625 9.613281 -0.125 7.75 -1.1875 C 5.882812 -2.257812 4.425781 -3.707031 3.375 -5.53125 C 2.320312 -7.363281 1.796875 -9.398438 1.796875 -11.640625 C 1.796875 -13.878906 2.320312 -15.910156 3.375 -17.734375 C 4.425781 -19.566406 5.882812 -21.015625 7.75 -22.078125 C 9.613281 -23.148438 11.6875 -23.6875 13.96875 -23.6875 C 16.25 -23.6875 18.320312 -23.148438 20.1875 -22.078125 C 22.050781 -21.015625 23.507812 -19.566406 24.5625 -17.734375 C 25.613281 -15.910156 26.140625 -13.878906 26.140625 -11.640625 C 26.140625 -9.398438 25.613281 -7.363281 24.5625 -5.53125 C 23.507812 -3.707031 22.050781 -2.257812 20.1875 -1.1875 C 18.320312 -0.125 16.25 0.40625 13.96875 0.40625 Z M 13.96875 -1.921875 C 15.789062 -1.921875 17.4375 -2.34375 18.90625 -3.1875 C 20.382812 -4.03125 21.546875 -5.195312 22.390625 -6.6875 C 23.234375 -8.175781 23.65625 -9.828125 23.65625 -11.640625 C 23.65625 -13.460938 23.234375 -15.113281 22.390625 -16.59375 C 21.546875 -18.082031 20.382812 -19.25 18.90625 -20.09375 C 17.4375 -20.9375 15.789062 -21.359375 13.96875 -21.359375 C 12.15625 -21.359375 10.507812 -20.9375 9.03125 -20.09375 C 7.550781 -19.25 6.390625 -18.082031 5.546875 -16.59375 C 4.710938 -15.113281 4.296875 -13.460938 4.296875 -11.640625 C 4.296875 -9.828125 4.710938 -8.175781 5.546875 -6.6875 C 6.390625 -5.195312 7.550781 -4.03125 9.03125 -3.1875 C 10.507812 -2.34375 12.15625 -1.921875 13.96875 -1.921875 Z M 13.96875 -1.921875 "/></g></g></g><g fill="#000000" fill-opacity="1"><g transform="translate(676.78476, 186.880907)"><g><path d="M 20.75 -4.0625 L 20.75 -23.28125 L 23.25 -23.28125 L 23.25 0 L 20.890625 0 L 5.953125 -19.234375 L 5.953125 0 L 3.453125 0 L 3.453125 -23.28125 L 5.828125 -23.28125 Z M 20.75 -4.0625 "/></g></g></g><path stroke-linecap="round" transform="matrix(0.75, 0, 0, 0.75, 40.905365, 129.710164)" fill="none" stroke-linejoin="miter" d="M 1.001179 1.001032 L 319.136616 1.001032 " stroke="#000000" stroke-width="2" stroke-opacity="1" stroke-miterlimit="4"/><path stroke-linecap="round" transform="matrix(0.75, 0, 0, 0.75, 487.531658, 129.710164)" fill="none" stroke-linejoin="miter" d="M 0.999457 1.001032 L 319.134893 1.001032 " stroke="#000000" stroke-width="2" stroke-opacity="1" stroke-miterlimit="4"/></svg>